SplineFontDB: 3.0
FontName: Monda-Regular
FullName: Monda Regular
FamilyName: Monda
Weight: Book
Copyright: Copyright (c) 2011-12 by vernon adams. All rights reserved.
Version: 1
ItalicAngle: 0
UnderlinePosition: 0
UnderlineWidth: 0
Ascent: 1638
Descent: 410
sfntRevision: 0x00010000
LayerCount: 2
Layer: 0 1 "Back"  1
Layer: 1 1 "Fore"  0
XUID: [1021 332 1330122705 1181486]
FSType: 0
OS2Version: 1
OS2_WeightWidthSlopeOnly: 0
OS2_UseTypoMetrics: 1
CreationTime: 1353971822
ModificationTime: 1353992323
PfmFamily: 17
TTFWeight: 400
TTFWidth: 5
LineGap: 0
VLineGap: 0
Panose: 2 0 5 3 0 0 0 0 0 0
OS2TypoAscent: 2106
OS2TypoAOffset: 0
OS2TypoDescent: -756
OS2TypoDOffset: 0
OS2TypoLinegap: 0
OS2WinAscent: 2106
OS2WinAOffset: 0
OS2WinDescent: 756
OS2WinDOffset: 0
HheadAscent: 2106
HheadAOffset: 0
HheadDescent: -756
HheadDOffset: 0
OS2SubXSize: 1331
OS2SubYSize: 1433
OS2SubXOff: 0
OS2SubYOff: 286
OS2SupXSize: 1331
OS2SupYSize: 1433
OS2SupXOff: 0
OS2SupYOff: 983
OS2StrikeYSize: 102
OS2StrikeYPos: 530
OS2Vendor: 'newt'
OS2CodePages: 00000093.00000000
OS2UnicodeRanges: a00000ef.4000204b.00000000.00000000
Lookup: 4 0 1 "'liga' Standard Ligatures lookup 0"  {"'liga' Standard Ligatures lookup 0 subtable"  } ['liga' ('DFLT' <'dflt' > 'grek' <'dflt' > 'latn' <'dflt' > ) ]
Lookup: 258 0 0 "'kern' Horizontal Kerning in Latin lookup 0"  {"'kern' Horizontal Kerning in Latin lookup 0 subtable"  } ['kern' ('DFLT' <'dflt' > 'latn' <'dflt' > ) ]
MarkAttachClasses: 1
DEI: 91125
KernClass2: 21 19 "'kern' Horizontal Kerning in Latin lookup 0 subtable" 
 89 A Agrave Aacute Acircumflex Atilde Adieresis Aring Amacron Abreve Aogonek uni0200 uni0202
 1 C
 116 D O Q Ograve Oacute Ocircumflex Otilde Odieresis Oslash Dcaron Omacron Obreve Ohungarumlaut uni020C uni020E glyph437
 1 F
 1 G
 1 K
 1 L
 1 P
 44 R Racute Rcommaaccent Rcaron uni0210 uni0212
 16 T Tcaron uni021A
 1 V
 1 W
 18 Y Yacute Ydieresis
 1 a

StartChar: .notdef
Encoding: 65536 -1 0
Width: 748
Flags: W
LayerCount: 2
Fore
SplineSet
136 68 m 1,0,-1
 544 68 l 1,1,-1
 544 1297 l 1,2,-1
 136 1297 l 1,3,-1
 136 68 l 1,0,-1
68 0 m 1,4,-1
 68 1365 l 1,5,-1
 612 1365 l 1,6,-1
 612 0 l 1,7,-1
 68 0 l 1,4,-1
EndSplineSet
EndChar

StartChar: exclam
Encoding: 33 33 4
Width: 768
GlyphClass: 2
Flags: W
LayerCount: 2
Fore
SplineSet
353 371 m 1,0,1
 286 1061 286 1061 286 1446 c 1,2,-1
 488 1446 l 1,3,4
 488 1103 488 1103 428 554 c 1,5,-1
 409 371 l 1,6,-1
 353 371 l 1,0,1
280 0 m 1,7,-1
 280 206 l 1,8,-1
 484 206 l 1,9,-1
 484 0 l 1,10,-1
 280 0 l 1,7,-1
EndSplineSet
EndChar

StartChar: quotedbl
Encoding: 34 34 5
Width: 890
GlyphClass: 2
Flags: W
LayerCount: 2
Fore
SplineSet
553 930 m 1,0,-1
 509 1506 l 1,1,-1
 714 1506 l 1,2,-1
 665 930 l 1,3,-1
 553 930 l 1,0,-1
220 930 m 1,4,-1
 176 1506 l 1,5,-1
 381 1506 l 1,6,-1
 332 930 l 1,7,-1
 220 930 l 1,4,-1
EndSplineSet
EndChar

StartChar: numbersign
Encoding: 35 35 6
Width: 1284
GlyphClass: 2
Flags: W
LayerCount: 2
Fore
SplineSet
463 594 m 1,0,-1
 762 594 l 1,1,-1
 819 910 l 1,2,-1
 519 910 l 1,3,-1
 463 594 l 1,0,-1
180 0 m 1,4,-1
 267 475 l 1,5,-1
 86 475 l 1,6,-1
 86 594 l 1,7,-1
 289 594 l 1,8,-1
 346 910 l 1,9,-1
 110 910 l 1,10,-1
 110 1029 l 1,11,-1
 368 1029 l 1,12,-1
 444 1446 l 1,13,-1
 614 1446 l 1,14,-1
 540 1029 l 1,15,-1
 841 1029 l 1,16,-1
 917 1446 l 1,17,-1
 1087 1446 l 1,18,-1
 1013 1029 l 1,19,-1
 1198 1029 l 1,20,-1
 1198 910 l 1,21,-1
 992 910 l 1,22,-1
 936 594 l 1,23,-1
 1174 594 l 1,24,-1
 1174 475 l 1,25,-1
 915 475 l 1,26,-1
 831 0 l 1,27,-1
 653 0 l 1,28,-1
 740 475 l 1,29,-1
 442 475 l 1,30,-1
 358 0 l 1,31,-1
 180 0 l 1,4,-1
EndSplineSet
EndChar

StartChar: dollar
Encoding: 36 36 7
Width: 1303
GlyphClass: 2
Flags: W
LayerCount: 2
Fore
SplineSet
730 -21 m 1,0,-1
 730 -242 l 1,1,-1
 620 -242 l 1,2,-1
 620 -20 l 1,3,4
 350 -6 350 -6 144 113 c 1,5,-1
 215 267 l 1,6,7
 305 214 305 214 416.5 182 c 128,-1,8
 528 150 528 150 620 143 c 1,9,-1
 620 680 l 1,10,-1
 453 736 l 2,11,12
 350 770 350 770 290 814 c 0,13,14
 171 900 171 900 171 1089 c 0,15,16
 171 1322 171 1322 366 1414 c 0,17,18
 469 1462 469 1462 620 1467 c 1,19,-1
 620 1638 l 1,20,-1
 730 1638 l 1,21,-1
 730 1467 l 1,22,23
 998 1456 998 1456 1141 1367 c 1,24,-1
 1092 1210 l 1,25,26
 930 1298 930 1298 730 1305 c 1,27,-1
 730 834 l 1,28,-1
 879 784 l 2,29,30
 982 748 982 748 1042 704 c 0,31,32
 1164 614 1164 614 1164 406 c 0,33,34
 1164 -4 1164 -4 730 -21 c 1,0,-1
730 141 m 1,35,36
 867 148 867 148 922 213 c 0,37,38
 978 278 978 278 978 437 c 0,39,40
 978 518 978 518 932 555 c 0,41,42
 886 592 886 592 802 620 c 2,43,-1
 730 644 l 1,44,-1
 730 141 l 1,35,36
620 1304 m 1,45,46
 516 1297 516 1297 455 1266 c 0,47,48
 374 1226 374 1226 368 1137 c 0,49,50
 366 1108 366 1108 366 1087 c 0,51,52
 366 1015 366 1015 396.5 976 c 128,-1,53
 427 937 427 937 515 907 c 2,54,-1
 620 872 l 1,55,-1
 620 1304 l 1,45,46
EndSplineSet
EndChar

StartChar: percent
Encoding: 37 37 8
Width: 2048
GlyphClass: 2
Flags: W
LayerCount: 2
Fore
SplineSet
668 0 m 1,0,-1
 1211 1446 l 1,1,-1
 1360 1446 l 1,2,-1
 822 0 l 1,3,-1
 668 0 l 1,0,-1
1807 78.5 m 128,-1,5
 1738 -19 1738 -19 1574.5 -19 c 128,-1,6
 1411 -19 1411 -19 1343.5 78.5 c 128,-1,7
 1276 176 1276 176 1276 360 c 2,8,-1
 1276 413 l 2,9,10
 1276 599 1276 599 1342.5 691.5 c 128,-1,11
 1409 784 1409 784 1576 784 c 128,-1,12
 1743 784 1743 784 1808.5 689 c 128,-1,13
 1874 594 1874 594 1876 414 c 1,14,-1
 1876 360 l 2,15,4
 1876 176 1876 176 1807 78.5 c 128,-1,5
1574 97 m 0,16,17
 1688 97 1688 97 1716 196 c 0,18,19
 1732 250 1732 250 1731 343 c 2,20,-1
 1731 436 l 2,21,22
 1731 584 1731 584 1692.5 626 c 128,-1,23
 1654 668 1654 668 1593 668 c 128,-1,24
 1532 668 1532 668 1503 656 c 0,25,26
 1448 634 1448 634 1433.5 580 c 128,-1,27
 1419 526 1419 526 1419 438 c 2,28,-1
 1419 343 l 2,29,30
 1419 193 1419 193 1457.5 145 c 128,-1,31
 1496 97 1496 97 1574 97 c 0,16,17
703 775.5 m 128,-1,33
 634 678 634 678 470.5 678 c 128,-1,34
 307 678 307 678 239.5 775.5 c 128,-1,35
 172 873 172 873 172 1057 c 2,36,-1
 172 1110 l 2,37,38
 172 1296 172 1296 238.5 1388.5 c 128,-1,39
 305 1481 305 1481 472 1481 c 128,-1,40
 639 1481 639 1481 704.5 1386 c 128,-1,41
 770 1291 770 1291 772 1111 c 1,42,-1
 772 1057 l 2,43,32
 772 873 772 873 703 775.5 c 128,-1,33
470 794 m 0,44,45
 584 794 584 794 612 893 c 0,46,47
 628 947 628 947 627 1040 c 2,48,-1
 627 1133 l 2,49,50
 627 1281 627 1281 588.5 1323 c 128,-1,51
 550 1365 550 1365 489 1365 c 0,52,53
 428 1366 428 1366 399 1354 c 0,54,55
 344 1332 344 1332 329.5 1277.5 c 128,-1,56
 315 1223 315 1223 315 1135 c 2,57,-1
 315 1040 l 2,58,59
 315 890 315 890 353.5 842 c 128,-1,60
 392 794 392 794 470 794 c 0,44,45
EndSplineSet
EndChar

StartChar: ampersand
Encoding: 38 38 9
Width: 1500
GlyphClass: 2
Flags: W
LayerCount: 2
Fore
SplineSet
456 205 m 128,-1,1
 534 126 534 126 705 126 c 128,-1,2
 876 126 876 126 951.5 145 c 128,-1,3
 1027 164 1027 164 1063 230 c 1,4,-1
 538 723 l 1,5,6
 391 683 391 683 380 517 c 0,7,8
 378 488 378 488 378 445 c 0,9,0
 378 284 378 284 456 205 c 128,-1,1
176 436 m 0,10,11
 176 594 176 594 236.5 684 c 128,-1,12
 297 774 297 774 439 816 c 1,13,14
 376 873 376 873 344 911 c 0,15,16
 264 1005 264 1005 264 1142 c 0,17,18
 264 1483 264 1483 689 1483 c 0,19,20
 870 1483 870 1483 946 1459.5 c 128,-1,21
 1022 1436 1022 1436 1054 1405 c 0,22,23
 1124 1339 1124 1339 1124 1205 c 2,24,-1
 1124 1104 l 1,25,-1
 958 1104 l 1,26,-1
 958 1164 l 2,27,28
 958 1265 958 1265 904 1298 c 128,-1,29
 850 1331 850 1331 739 1331 c 128,-1,30
 628 1331 628 1331 577 1316 c 128,-1,31
 526 1301 526 1301 490 1260 c 0,32,33
 454 1219 454 1219 454 1144.5 c 128,-1,34
 454 1070 454 1070 480 1026 c 128,-1,35
 506 982 506 982 578 907 c 1,36,-1
 1100 410 l 1,37,38
 1101 424 1101 424 1101 455 c 2,39,-1
 1101 778 l 1,40,-1
 1276 778 l 1,41,-1
 1276 500 l 2,42,43
 1276 340 1276 340 1257 261 c 1,44,-1
 1432 94 l 1,45,-1
 1328 -19 l 1,46,-1
 1186 114 l 1,47,48
 1066 -24 1066 -24 712 -24 c 0,49,50
 176 -24 176 -24 176 436 c 0,10,11
EndSplineSet
EndChar

StartChar: quotesingle
Encoding: 39 39 10
Width: 896
GlyphClass: 2
Flags: W
LayerCount: 2
Fore
SplineSet
223 930 m 1,0,-1
 179 1506 l 1,1,-1
 384 1506 l 1,2,-1
 335 930 l 1,3,-1
 223 930 l 1,0,-1
EndSplineSet
EndChar

StartChar: parenleft
Encoding: 40 40 11
Width: 768
GlyphClass: 2
Flags: W
LayerCount: 2
Fore
SplineSet
644 -150 m 1,0,1
 507 -150 507 -150 395 -111 c 0,2,3
 326 -87 326 -87 254 -4 c 0,4,5
 218 37 218 37 196 127.5 c 128,-1,6
 174 218 174 218 173 296 c 128,-1,7
 172 374 172 374 172 440 c 2,8,-1
 172 959 l 2,9,10
 172 1161 172 1161 182 1209.5 c 128,-1,11
 192 1258 192 1258 203 1304.5 c 128,-1,12
 214 1351 214 1351 232 1378.5 c 128,-1,13
 250 1406 250 1406 275 1440.5 c 128,-1,14
 300 1475 300 1475 335 1494.5 c 128,-1,15
 370 1514 370 1514 433.5 1540.5 c 128,-1,16
 497 1567 497 1567 644 1567 c 1,17,-1
 644 1416 l 1,18,19
 468 1416 468 1416 417 1330 c 0,20,21
 396 1296 396 1296 380 1255 c 0,22,23
 364 1213 364 1213 364 996 c 2,24,-1
 364 409 l 2,25,26
 364 194 364 194 380 154 c 0,27,28
 420 57 420 57 467 35 c 0,29,30
 542 0 542 0 644 0 c 1,31,-1
 644 -150 l 1,0,1
EndSplineSet
EndChar

StartChar: parenright
Encoding: 41 41 12
Width: 768
GlyphClass: 2
Flags: W
LayerCount: 2
Fore
SplineSet
124 -150 m 1,0,-1
 124 1 l 1,1,2
 300 0 300 0 351 86 c 0,3,4
 372 120 372 120 388 162 c 0,5,6
 404 204 404 204 404 421 c 2,7,-1
 404 1008 l 2,8,9
 404 1223 404 1223 388 1263 c 0,10,11
 348 1360 348 1360 301 1382 c 0,12,13
 226 1417 226 1417 124 1417 c 1,14,-1
 124 1567 l 1,15,16
 261 1567 261 1567 373 1528 c 0,17,18
 442 1504 442 1504 514 1421 c 0,19,20
 550 1380 550 1380 572 1289.5 c 128,-1,21
 594 1199 594 1199 595 1121 c 128,-1,22
 596 1043 596 1043 596 977 c 2,23,-1
 596 458 l 2,24,25
 596 256 596 256 586 207.5 c 128,-1,26
 576 159 576 159 565 112.5 c 128,-1,27
 554 66 554 66 536 38.5 c 128,-1,28
 518 11 518 11 493 -23.5 c 128,-1,29
 468 -58 468 -58 433 -77.5 c 128,-1,30
 398 -97 398 -97 334.5 -123.5 c 128,-1,31
 271 -150 271 -150 124 -150 c 1,0,-1
EndSplineSet
EndChar

StartChar: asterisk
Encoding: 42 42 13
Width: 1024
GlyphClass: 2
Flags: W
LayerCount: 2
Fore
SplineSet
423 599 m 1,0,-1
 452 924 l 1,1,-1
 179 750 l 1,2,-1
 99 911 l 1,3,-1
 389 1028 l 1,4,-1
 109 1170 l 1,5,-1
 204 1323 l 1,6,-1
 451 1133 l 1,7,-1
 423 1446 l 1,8,-1
 601 1446 l 1,9,-1
 571 1121 l 1,10,-1
 844 1295 l 1,11,-1
 925 1134 l 1,12,-1
 634 1017 l 1,13,-1
 914 875 l 1,14,-1
 819 722 l 1,15,-1
 572 912 l 1,16,-1
 601 599 l 1,17,-1
 423 599 l 1,0,-1
EndSplineSet
EndChar

StartChar: plus
Encoding: 43 43 14
Width: 1024
GlyphClass: 2
Flags: W
LayerCount: 2
Fore
SplineSet
437 156 m 1,0,-1
 437 494 l 1,1,-1
 162 494 l 1,2,-1
 162 642 l 1,3,-1
 437 642 l 1,4,-1
 437 968 l 1,5,-1
 588 968 l 1,6,-1
 588 642 l 1,7,-1
 862 642 l 1,8,-1
 862 494 l 1,9,-1
 588 494 l 1,10,-1
 588 156 l 1,11,-1
 437 156 l 1,0,-1
EndSplineSet
EndChar

StartChar: comma
Encoding: 44 44 15
Width: 641
GlyphClass: 2
Flags: W
LayerCount: 2
Fore
SplineSet
277 -338 m 1,0,-1
 196 -294 l 1,1,2
 294 -176 294 -176 320 -92 c 0,3,4
 334 -46 334 -46 333 0 c 1,5,-1
 192 0 l 1,6,-1
 192 233 l 1,7,-1
 449 233 l 1,8,-1
 449 50 l 2,9,10
 449 -123 449 -123 329 -280 c 0,11,12
 303 -314 303 -314 277 -338 c 1,0,-1
EndSplineSet
EndChar

StartChar: hyphen
Encoding: 45 45 16
Width: 1024
GlyphClass: 2
Flags: W
LayerCount: 2
Fore
SplineSet
162 494 m 1,0,-1
 162 642 l 1,1,-1
 862 642 l 1,2,-1
 862 494 l 1,3,-1
 162 494 l 1,0,-1
EndSplineSet
EndChar

StartChar: period
Encoding: 46 46 17
Width: 628
GlyphClass: 2
Flags: W
LayerCount: 2
Fore
SplineSet
186 0 m 1,0,-1
 186 242 l 1,1,-1
 442 242 l 1,2,-1
 442 0 l 1,3,-1
 186 0 l 1,0,-1
EndSplineSet
EndChar

StartChar: slash
Encoding: 47 47 18
Width: 768
GlyphClass: 2
Flags: W
LayerCount: 2
Fore
SplineSet
521 1506 m 1,0,-1
 704 1506 l 1,1,-1
 251 0 l 1,2,-1
 64 0 l 1,3,-1
 521 1506 l 1,0,-1
EndSplineSet
EndChar

StartChar: zero
Encoding: 48 48 19
Width: 1250
GlyphClass: 2
Flags: W
LayerCount: 2
Fore
SplineSet
773 -8 m 128,-1,1
 710 -22 710 -22 621.5 -22 c 128,-1,2
 533 -22 533 -22 454 0 c 0,3,4
 301 43 301 43 233.5 144.5 c 128,-1,5
 166 246 166 246 149 366 c 128,-1,6
 132 486 132 486 132 636 c 2,7,-1
 132 790 l 2,8,9
 132 1000 132 1000 148 1073 c 0,10,11
 182 1225 182 1225 225 1287 c 0,12,13
 351 1468 351 1468 608 1468 c 0,14,15
 914 1468 914 1468 1020 1291 c 0,16,17
 1085 1184 1085 1184 1101.5 1061 c 128,-1,18
 1118 938 1118 938 1118 777 c 2,19,-1
 1118 650 l 2,20,21
 1118 448 1118 448 1102.5 374 c 128,-1,22
 1087 300 1087 300 1069.5 248 c 128,-1,23
 1052 196 1052 196 1027.5 159.5 c 128,-1,24
 1003 123 1003 123 966 86.5 c 128,-1,25
 929 50 929 50 882.5 28 c 128,-1,0
 836 6 836 6 773 -8 c 128,-1,1
630 140 m 0,26,27
 743 140 743 140 796 177 c 0,28,29
 825 197 825 197 846 218 c 0,30,31
 917 289 917 289 917 550 c 2,32,-1
 917 832 l 2,33,34
 917 1008 917 1008 909 1051 c 0,35,36
 889 1157 889 1157 857 1206.5 c 128,-1,37
 825 1256 825 1256 772 1281 c 128,-1,38
 719 1306 719 1306 647 1306 c 0,39,40
 574 1306 574 1306 528 1292 c 0,41,42
 436 1263 436 1263 396 1192.5 c 128,-1,43
 356 1122 356 1122 345 1033.5 c 128,-1,44
 334 945 334 945 334 816 c 2,45,-1
 334 619 l 2,46,47
 334 405 334 405 364 316 c 0,48,49
 424 140 424 140 630 140 c 0,26,27
EndSplineSet
EndChar

StartChar: one
Encoding: 49 49 20
Width: 1250
GlyphClass: 2
Flags: W
LayerCount: 2
Fore
SplineSet
206 0 m 1,0,-1
 206 155 l 1,1,-1
 607 155 l 1,2,-1
 607 1277 l 1,3,-1
 233 1237 l 1,4,-1
 215 1396 l 1,5,-1
 644 1446 l 1,6,-1
 808 1446 l 1,7,-1
 808 155 l 1,8,-1
 1162 155 l 1,9,-1
 1162 0 l 1,10,-1
 206 0 l 1,0,-1
EndSplineSet
EndChar

StartChar: two
Encoding: 50 50 21
Width: 1250
GlyphClass: 2
Flags: W
LayerCount: 2
Fore
SplineSet
231 0 m 1,0,-1
 212 158 l 1,1,-1
 700 689 l 2,2,3
 833 833 833 833 851.5 866.5 c 128,-1,4
 870 900 870 900 887.5 940 c 128,-1,5
 905 980 905 980 905 1057 c 0,6,7
 905 1194 905 1194 847 1250 c 128,-1,8
 789 1306 789 1306 654 1306 c 0,9,10
 570 1306 570 1306 519 1295 c 128,-1,11
 468 1284 468 1284 431 1253 c 0,12,13
 365 1198 365 1198 365 1024 c 1,14,-1
 164 1024 l 1,15,16
 164 1468 164 1468 639 1468 c 0,17,18
 867 1468 867 1468 981 1352.5 c 128,-1,19
 1095 1237 1095 1237 1095 1072 c 128,-1,20
 1095 907 1095 907 1035 814 c 0,21,22
 975 721 975 721 912.5 655.5 c 128,-1,23
 850 590 850 590 842 581 c 2,24,-1
 441 156 l 1,25,-1
 1087 156 l 1,26,-1
 1087 0 l 1,27,-1
 231 0 l 1,0,-1
EndSplineSet
EndChar

StartChar: three
Encoding: 51 51 22
Width: 1250
GlyphClass: 2
Flags: W
LayerCount: 2
Fore
SplineSet
909 1088 m 0,0,1
 909 1306 909 1306 682 1306 c 0,2,3
 564 1306 564 1306 517.5 1284 c 0,4,5
 472 1262 472 1262 452 1231 c 0,6,7
 410 1165 410 1165 410 1025 c 1,8,-1
 218 1025 l 1,9,10
 218 1208 218 1208 280 1304.5 c 128,-1,11
 342 1401 342 1401 441.5 1434.5 c 128,-1,12
 541 1468 541 1468 675 1468 c 0,13,14
 870 1468 870 1468 983.5 1374.5 c 128,-1,15
 1097 1281 1097 1281 1097 1091 c 0,16,17
 1097 945 1097 945 1042.5 866.5 c 128,-1,18
 988 788 988 788 865 768 c 1,19,20
 996 741 996 741 1061 657 c 128,-1,21
 1126 573 1126 573 1126 383 c 128,-1,22
 1126 193 1126 193 1010 85.5 c 128,-1,23
 894 -22 894 -22 679 -22 c 0,24,25
 516 -22 516 -22 420.5 21 c 128,-1,26
 325 64 325 64 275 161 c 128,-1,27
 225 258 225 258 208 431 c 1,28,-1
 400 431 l 1,29,30
 412 253 412 253 477 195 c 0,31,32
 513 163 513 163 562 151.5 c 128,-1,33
 611 140 611 140 690 140 c 0,34,35
 817 140 817 140 876 205 c 128,-1,36
 935 270 935 270 935 422 c 128,-1,37
 935 574 935 574 879.5 623.5 c 128,-1,38
 824 673 824 673 743.5 682 c 128,-1,39
 663 691 663 691 587 691 c 1,40,-1
 587 840 l 1,41,42
 747 840 747 840 803 866 c 128,-1,43
 859 892 859 892 879 922 c 0,44,45
 909 967 909 967 909 1088 c 0,0,1
EndSplineSet
EndChar

StartChar: four
Encoding: 52 52 23
Width: 1250
GlyphClass: 2
Flags: W
LayerCount: 2
Fore
SplineSet
783 0 m 1,0,-1
 783 351 l 1,1,-1
 143 351 l 1,2,-1
 143 508 l 1,3,-1
 672 1446 l 1,4,-1
 881 1446 l 1,5,-1
 367 506 l 1,6,-1
 783 506 l 1,7,-1
 783 837 l 1,8,-1
 950 837 l 1,9,-1
 950 506 l 1,10,-1
 1162 506 l 1,11,-1
 1162 351 l 1,12,-1
 950 351 l 1,13,-1
 950 0 l 1,14,-1
 783 0 l 1,0,-1
EndSplineSet
EndChar

StartChar: five
Encoding: 53 53 24
Width: 1250
GlyphClass: 2
Flags: W
LayerCount: 2
Fore
SplineSet
406 819 m 1,0,1
 507 911 507 911 669 911 c 0,2,3
 889 911 889 911 1003 789 c 128,-1,4
 1117 667 1117 667 1117 452.5 c 128,-1,5
 1117 238 1117 238 983.5 108 c 128,-1,6
 850 -22 850 -22 632 -22 c 0,7,8
 528 -22 528 -22 435 -0.5 c 128,-1,9
 342 21 342 21 290 45 c 128,-1,10
 238 69 238 69 173 107 c 1,11,-1
 226 260 l 1,12,13
 288 219 288 219 332 197 c 0,14,15
 446 140 446 140 606.5 140 c 128,-1,16
 767 140 767 140 847.5 218 c 128,-1,17
 928 296 928 296 928 443.5 c 128,-1,18
 928 591 928 591 859 676.5 c 128,-1,19
 790 762 790 762 645 762 c 0,20,21
 575 762 575 762 520.5 737.5 c 128,-1,22
 466 713 466 713 382 652 c 1,23,-1
 236 712 l 1,24,-1
 287 1446 l 1,25,-1
 1024 1446 l 1,26,-1
 1024 1281 l 1,27,-1
 448 1281 l 1,28,-1
 406 819 l 1,0,1
EndSplineSet
EndChar

StartChar: six
Encoding: 54 54 25
Width: 1250
GlyphClass: 2
Flags: W
LayerCount: 2
Fore
SplineSet
436 649.5 m 128,-1,1
 365 584 365 584 365 423.5 c 128,-1,2
 365 263 365 263 434.5 201.5 c 128,-1,3
 504 140 504 140 650.5 140 c 128,-1,4
 797 140 797 140 871 201.5 c 128,-1,5
 945 263 945 263 945 432 c 0,6,7
 945 601 945 601 868 658 c 0,8,9
 791 715 791 715 649 715 c 128,-1,0
 507 715 507 715 436 649.5 c 128,-1,1
833 1446 m 1,10,-1
 476 841 l 1,11,12
 560 878 560 878 654 878 c 0,13,14
 886 878 886 878 1009 769.5 c 128,-1,15
 1132 661 1132 661 1132 422 c 0,16,17
 1132 88 1132 88 840 3 c 0,18,19
 754 -22 754 -22 647 -22 c 0,20,21
 429 -22 429 -22 303.5 87 c 128,-1,22
 178 196 178 196 178 420 c 128,-1,23
 178 644 178 644 319 897 c 1,24,-1
 633 1446 l 1,25,-1
 833 1446 l 1,10,-1
EndSplineSet
EndChar

StartChar: seven
Encoding: 55 55 26
Width: 1250
GlyphClass: 2
Flags: W
LayerCount: 2
Fore
SplineSet
369 0 m 1,0,-1
 869 1291 l 1,1,-1
 189 1291 l 1,2,-1
 189 1446 l 1,3,-1
 1070 1446 l 1,4,-1
 1070 1289 l 1,5,-1
 580 0 l 1,6,-1
 369 0 l 1,0,-1
EndSplineSet
EndChar

StartChar: eight
Encoding: 56 56 27
Width: 1250
GlyphClass: 2
Flags: W
LayerCount: 2
Fore
SplineSet
625 846 m 1,0,1
 782 924 782 924 808.5 948 c 128,-1,2
 835 972 835 972 865 1006 c 128,-1,3
 895 1040 895 1040 895 1122 c 128,-1,4
 895 1204 895 1204 832 1255 c 128,-1,5
 769 1306 769 1306 625 1306 c 128,-1,6
 481 1306 481 1306 418 1255 c 128,-1,7
 355 1204 355 1204 355 1107 c 0,8,9
 356 982 356 982 540 888 c 0,10,11
 570 873 570 873 625 846 c 1,0,1
399.5 193.5 m 128,-1,13
 476 140 476 140 625 140 c 128,-1,14
 774 140 774 140 850.5 193.5 c 128,-1,15
 927 247 927 247 927 366 c 128,-1,16
 927 485 927 485 843 554 c 128,-1,17
 759 623 759 623 625 689 c 1,18,19
 487 622 487 622 427.5 572 c 128,-1,20
 368 522 368 522 345.5 475.5 c 128,-1,21
 323 429 323 429 323 372 c 0,22,12
 323 247 323 247 399.5 193.5 c 128,-1,13
985.5 76 m 128,-1,24
 853 -22 853 -22 623 -22 c 128,-1,25
 393 -22 393 -22 262.5 76 c 128,-1,26
 132 174 132 174 132 367 c 0,27,28
 132 637 132 637 438 773 c 1,29,30
 313 831 313 831 257.5 883 c 128,-1,31
 202 935 202 935 181 988 c 128,-1,32
 160 1041 160 1041 160 1123 c 128,-1,33
 160 1205 160 1205 196.5 1276.5 c 0,34,35
 232 1348 232 1348 298 1389 c 0,36,37
 424 1468 424 1468 625 1468 c 0,38,39
 825 1468 825 1468 958 1385 c 0,40,41
 1090 1302 1090 1302 1090 1108 c 0,42,43
 1090 974 1090 974 1013 902 c 128,-1,44
 936 830 936 830 811 773 c 1,45,46
 1118 637 1118 637 1118 367 c 0,47,23
 1118 174 1118 174 985.5 76 c 128,-1,24
EndSplineSet
EndChar

StartChar: nine
Encoding: 57 57 28
Width: 1250
GlyphClass: 2
Flags: W
LayerCount: 2
Fore
SplineSet
848 796.5 m 128,-1,1
 919 862 919 862 919 1022.5 c 128,-1,2
 919 1183 919 1183 849.5 1244.5 c 128,-1,3
 780 1306 780 1306 633.5 1306 c 128,-1,4
 487 1306 487 1306 412.5 1244.5 c 128,-1,5
 338 1183 338 1183 338 1014 c 0,6,7
 338 845 338 845 415 788 c 0,8,9
 492 731 492 731 634.5 731 c 128,-1,0
 777 731 777 731 848 796.5 c 128,-1,1
451 0 m 1,10,-1
 808 605 l 1,11,12
 724 568 724 568 630 568 c 0,13,14
 398 568 398 568 274.5 676.5 c 128,-1,15
 151 785 151 785 151 1024 c 0,16,17
 150 1358 150 1358 444 1443 c 0,18,19
 530 1468 530 1468 637 1468 c 0,20,21
 855 1468 855 1468 980.5 1359 c 128,-1,22
 1106 1250 1106 1250 1106 1026 c 128,-1,23
 1106 802 1106 802 965 549 c 1,24,-1
 651 0 l 1,25,-1
 451 0 l 1,10,-1
EndSplineSet
EndChar

StartChar: less
Encoding: 60 60 31
Width: 1250
GlyphClass: 2
Flags: W
LayerCount: 2
Fore
SplineSet
1042 0 m 1,0,-1
 156 471 l 1,1,-1
 156 672 l 1,2,-1
 1042 1144 l 1,3,-1
 1042 941 l 1,4,-1
 311 573 l 1,5,-1
 1042 209 l 1,6,-1
 1042 0 l 1,0,-1
EndSplineSet
EndChar

StartChar: equal
Encoding: 61 61 32
Width: 1250
GlyphClass: 2
Flags: W
LayerCount: 2
Fore
SplineSet
224 805 m 1,0,-1
 224 953 l 1,1,-1
 1026 953 l 1,2,-1
 1026 805 l 1,3,-1
 224 805 l 1,0,-1
224 467 m 1,4,-1
 224 615 l 1,5,-1
 1026 615 l 1,6,-1
 1026 467 l 1,7,-1
 224 467 l 1,4,-1
EndSplineSet
EndChar

StartChar: greater
Encoding: 62 62 33
Width: 1250
GlyphClass: 2
Flags: W
LayerCount: 2
Fore
SplineSet
208 0 m 1,0,-1
 208 203 l 1,1,-1
 939 571 l 1,2,-1
 208 935 l 1,3,-1
 208 1144 l 1,4,-1
 1094 673 l 1,5,-1
 1094 472 l 1,6,-1
 208 0 l 1,0,-1
EndSplineSet
EndChar

StartChar: question
Encoding: 63 63 34
Width: 1240
GlyphClass: 2
Flags: W
LayerCount: 2
Fore
SplineSet
440 0 m 1,0,-1
 440 206 l 1,1,-1
 644 206 l 1,2,-1
 644 0 l 1,3,-1
 440 0 l 1,0,-1
466 431 m 1,4,-1
 740 795 l 2,5,6
 856 951 856 951 874 1024 c 0,7,8
 883 1061 883 1061 883 1103 c 0,9,10
 883 1201 883 1201 833 1253.5 c 128,-1,11
 783 1306 783 1306 643 1306 c 128,-1,12
 503 1306 503 1306 439.5 1252 c 128,-1,13
 376 1198 376 1198 376 1092 c 2,14,-1
 376 1039 l 1,15,-1
 179 1039 l 1,16,-1
 179 1071 l 2,17,18
 179 1294 179 1294 287.5 1381 c 128,-1,19
 396 1468 396 1468 666 1468 c 0,20,21
 936 1468 936 1468 1041 1308 c 0,22,23
 1096 1224 1096 1224 1096 1136 c 128,-1,24
 1096 1048 1096 1048 1079 990.5 c 128,-1,25
 1062 933 1062 933 1011 858 c 0,26,27
 960 783 960 783 834 650 c 2,28,-1
 626 431 l 1,29,-1
 466 431 l 1,4,-1
EndSplineSet
EndChar

StartChar: at
Encoding: 64 64 35
Width: 2048
GlyphClass: 2
Flags: W
LayerCount: 2
Fore
SplineSet
946 539 m 0,0,1
 946 343 946 343 1156 343 c 0,2,3
 1256 343 1256 343 1365 394 c 128,-1,4
 1474 445 1474 445 1497 522 c 1,5,-1
 1497 825 l 1,6,7
 1484 819 1484 819 1330 779 c 128,-1,8
 1176 739 1176 739 1145.5 729.5 c 128,-1,9
 1115 720 1115 720 1090 710.5 c 0,10,11
 1066 700 1066 700 1046 690 c 0,12,13
 1004 668 1004 668 984 648 c 0,14,15
 946 608 946 608 946 539 c 0,0,1
1419 -228 m 128,-1,17
 1261 -258 1261 -258 1084.5 -258 c 128,-1,18
 908 -258 908 -258 762 -213.5 c 128,-1,19
 616 -169 616 -169 530 -88 c 0,20,21
 362 70 362 70 362 332 c 2,22,-1
 362 895 l 2,23,24
 362 1232 362 1232 582 1374 c 0,25,26
 751 1482 751 1482 1062 1483 c 0,27,28
 1550 1483 1550 1483 1647 1204 c 0,29,30
 1676 1122 1676 1122 1676 972 c 2,31,-1
 1676 479 l 2,32,33
 1676 411 1676 411 1690 391 c 128,-1,34
 1704 371 1704 371 1727.5 365.5 c 128,-1,35
 1751 360 1751 360 1792 360 c 1,36,-1
 1772 212 l 1,37,-1
 1732 212 l 2,38,39
 1608 212 1608 212 1561 284 c 0,40,41
 1537 320 1537 320 1521 376 c 1,42,43
 1473 304 1473 304 1371 249.5 c 128,-1,44
 1269 195 1269 195 1105 195 c 128,-1,45
 941 195 941 195 842.5 291.5 c 128,-1,46
 744 388 744 388 744 533 c 0,47,48
 744 631 744 631 782.5 683 c 128,-1,49
 821 735 821 735 871 765 c 0,50,51
 978 829 978 829 1237 892 c 128,-1,52
 1496 955 1496 955 1497 955 c 1,53,54
 1497 1129 1497 1129 1451 1198.5 c 128,-1,55
 1405 1268 1405 1268 1313 1299.5 c 128,-1,56
 1221 1331 1221 1331 1062 1331 c 0,57,58
 805 1331 805 1331 678.5 1238 c 128,-1,59
 552 1145 552 1145 552 936 c 2,60,-1
 552 298 l 2,61,62
 552 91 552 91 697.5 -10 c 128,-1,63
 843 -111 843 -111 1104 -111 c 0,64,65
 1253 -111 1253 -111 1394 -82.5 c 128,-1,66
 1535 -54 1535 -54 1621 -17 c 1,67,-1
 1671 -158 l 1,68,16
 1577 -198 1577 -198 1419 -228 c 128,-1,17
EndSplineSet
EndChar

StartChar: A
Encoding: 65 65 36
Width: 1428
GlyphClass: 2
Flags: W
LayerCount: 2
Fore
SplineSet
442 425 m 1,0,-1
 993 425 l 1,1,-1
 719 1216 l 1,2,-1
 442 425 l 1,0,-1
86 0 m 1,3,-1
 625 1446 l 1,4,-1
 802 1446 l 1,5,-1
 1342 0 l 1,6,-1
 1137 0 l 1,7,-1
 1039 282 l 1,8,-1
 394 282 l 1,9,-1
 295 0 l 1,10,-1
 86 0 l 1,3,-1
EndSplineSet
EndChar

StartChar: B
Encoding: 66 66 37
Width: 1420
GlyphClass: 2
Flags: W
LayerCount: 2
Fore
SplineSet
420 833 m 1,0,-1
 791 833 l 2,1,2
 920 833 920 833 970.5 887 c 128,-1,3
 1021 941 1021 941 1021 1034 c 128,-1,4
 1021 1127 1021 1127 1007.5 1174 c 128,-1,5
 994 1221 994 1221 956.5 1249 c 128,-1,6
 919 1277 919 1277 863.5 1286 c 128,-1,7
 808 1295 808 1295 711 1295 c 2,8,-1
 420 1295 l 1,9,-1
 420 833 l 1,0,-1
420 149 m 1,10,-1
 771 149 l 2,11,12
 941 149 941 149 1017 204 c 0,13,14
 1094 259 1094 259 1094 433 c 0,15,16
 1094 696 1094 696 820 696 c 2,17,-1
 420 696 l 1,18,-1
 420 149 l 1,10,-1
218 0 m 1,19,-1
 218 1446 l 1,20,-1
 742 1446 l 2,21,22
 1078 1446 1078 1446 1168 1297 c 0,23,24
 1222 1208 1222 1208 1222 1049 c 1,25,26
 1217 834 1217 834 1040 773 c 1,27,28
 1164 745 1164 745 1228 649 c 128,-1,29
 1292 553 1292 553 1292 411 c 0,30,31
 1292 196 1292 196 1171 98 c 128,-1,32
 1050 0 1050 0 786 0 c 2,33,-1
 218 0 l 1,19,-1
EndSplineSet
EndChar

StartChar: C
Encoding: 67 67 38
Width: 1456
GlyphClass: 2
Flags: W
LayerCount: 2
Fore
SplineSet
225 219.5 m 128,-1,1
 182 330 182 330 182 486 c 2,2,-1
 182 940 l 2,3,4
 182 1256 182 1256 346 1371 c 0,5,6
 485 1468 485 1468 750.5 1468 c 128,-1,7
 1016 1468 1016 1468 1136 1394.5 c 128,-1,8
 1256 1321 1256 1321 1286 1164 c 0,9,10
 1300 1094 1300 1094 1300 997 c 1,11,-1
 1109 980 l 1,12,13
 1109 1126 1109 1126 1084 1177.5 c 128,-1,14
 1059 1229 1059 1229 1034.5 1251 c 128,-1,15
 1010 1273 1010 1273 954 1289.5 c 128,-1,16
 898 1306 898 1306 779 1306 c 128,-1,17
 660 1306 660 1306 592.5 1290.5 c 0,18,19
 524 1275 524 1275 476 1238 c 0,20,21
 384 1167 384 1167 384 977 c 2,22,-1
 384 455 l 2,23,24
 384 267 384 267 477 203.5 c 128,-1,25
 570 140 570 140 773.5 140 c 128,-1,26
 977 140 977 140 1033 187.5 c 0,27,28
 1089 236 1089 236 1102 328 c 0,29,30
 1109 378 1109 378 1109 448 c 1,31,-1
 1300 448 l 1,32,33
 1300 230 1300 230 1237 142 c 0,34,35
 1121 -22 1121 -22 796 -22 c 1,36,37
 523 -22 523 -22 395.5 43.5 c 128,-1,0
 268 109 268 109 225 219.5 c 128,-1,1
EndSplineSet
EndChar

StartChar: D
Encoding: 68 68 39
Width: 1522
GlyphClass: 2
Flags: W
LayerCount: 2
Fore
SplineSet
218 0 m 1,0,-1
 218 1446 l 1,1,-1
 792 1446 l 2,2,3
 1207 1446 1207 1446 1310 1152 c 0,4,5
 1340 1066 1340 1066 1340 959 c 2,6,-1
 1340 482 l 2,7,8
 1340 245 1340 245 1203.5 122.5 c 128,-1,9
 1067 0 1067 0 794 0 c 2,10,-1
 218 0 l 1,0,-1
420 150 m 1,11,-1
 774 150 l 2,12,13
 992 150 992 150 1065 231 c 0,14,15
 1139 312 1139 312 1139 462 c 2,16,-1
 1139 971 l 2,17,18
 1139 1192 1139 1192 991 1258 c 0,19,20
 907 1296 907 1296 774 1295 c 2,21,-1
 420 1295 l 1,22,-1
 420 150 l 1,11,-1
EndSplineSet
EndChar

StartChar: E
Encoding: 69 69 40
Width: 1255
GlyphClass: 2
Flags: W
LayerCount: 2
Fore
SplineSet
218 0 m 1,0,-1
 218 1446 l 1,1,-1
 1121 1446 l 1,2,-1
 1121 1296 l 1,3,-1
 419 1296 l 1,4,-1
 419 820 l 1,5,-1
 1039 820 l 1,6,-1
 1039 670 l 1,7,-1
 419 670 l 1,8,-1
 419 150 l 1,9,-1
 1133 150 l 1,10,-1
 1133 0 l 1,11,-1
 218 0 l 1,0,-1
EndSplineSet
EndChar

StartChar: F
Encoding: 70 70 41
Width: 1159
GlyphClass: 2
Flags: W
LayerCount: 2
Fore
SplineSet
218 0 m 1,0,-1
 218 1446 l 1,1,-1
 1039 1446 l 1,2,-1
 1039 1296 l 1,3,-1
 419 1296 l 1,4,-1
 419 814 l 1,5,-1
 1003 814 l 1,6,-1
 1003 664 l 1,7,-1
 419 664 l 1,8,-1
 419 0 l 1,9,-1
 218 0 l 1,0,-1
EndSplineSet
EndChar

StartChar: G
Encoding: 71 71 42
Width: 1556
GlyphClass: 2
Flags: W
LayerCount: 2
Fore
SplineSet
788 -22 m 0,0,1
 384 -22 384 -22 259 178 c 0,2,3
 186 295 186 295 186 486 c 2,4,-1
 186 940 l 2,5,6
 186 1249 186 1249 366 1371 c 0,7,8
 509 1468 509 1468 768 1468 c 0,9,10
 1026 1468 1026 1468 1147 1409 c 0,11,12
 1267 1350 1267 1350 1306 1253 c 0,13,14
 1344 1156 1344 1156 1344 1016 c 1,15,-1
 1160 1001 l 1,16,17
 1160 1142 1160 1142 1132.5 1189.5 c 128,-1,18
 1105 1237 1105 1237 1079.5 1257 c 0,19,20
 1054 1278 1054 1278 993 1292 c 128,-1,21
 932 1306 932 1306 810 1306 c 128,-1,22
 688 1306 688 1306 617.5 1290.5 c 0,23,24
 548 1275 548 1275 494 1238 c 0,25,26
 388 1165 388 1165 388 977 c 2,27,-1
 388 455 l 2,28,29
 388 267 388 267 489 204 c 0,30,31
 590 140 590 140 787 140 c 128,-1,32
 984 140 984 140 1071 203 c 128,-1,33
 1158 266 1158 266 1158 455 c 2,34,-1
 1158 588 l 1,35,-1
 815 588 l 1,36,-1
 815 735 l 1,37,-1
 1360 735 l 1,38,-1
 1360 0 l 1,39,-1
 1250 0 l 1,40,-1
 1225 246 l 1,41,42
 1206 121 1206 121 1099.5 49.5 c 128,-1,43
 993 -22 993 -22 788 -22 c 0,0,1
EndSplineSet
EndChar

StartChar: H
Encoding: 72 72 43
Width: 1528
GlyphClass: 2
Flags: W
LayerCount: 2
Fore
SplineSet
212 0 m 1,0,-1
 212 1446 l 1,1,-1
 413 1446 l 1,2,-1
 413 807 l 1,3,-1
 1115 807 l 1,4,-1
 1115 1446 l 1,5,-1
 1316 1446 l 1,6,-1
 1316 0 l 1,7,-1
 1115 0 l 1,8,-1
 1115 659 l 1,9,-1
 413 659 l 1,10,-1
 413 0 l 1,11,-1
 212 0 l 1,0,-1
EndSplineSet
EndChar

StartChar: I
Encoding: 73 73 44
Width: 1132
GlyphClass: 2
Flags: W
LayerCount: 2
Fore
SplineSet
190 0 m 1,0,-1
 190 150 l 1,1,-1
 466 150 l 1,2,-1
 466 1297 l 1,3,-1
 190 1297 l 1,4,-1
 190 1446 l 1,5,-1
 942 1446 l 1,6,-1
 942 1297 l 1,7,-1
 667 1297 l 1,8,-1
 667 150 l 1,9,-1
 942 150 l 1,10,-1
 942 0 l 1,11,-1
 190 0 l 1,0,-1
EndSplineSet
EndChar

StartChar: J
Encoding: 74 74 45
Width: 1206
GlyphClass: 2
Flags: W
LayerCount: 2
Fore
SplineSet
522 -17 m 0,0,1
 407 -17 407 -17 283 11.5 c 128,-1,2
 159 40 159 40 102 70 c 1,3,-1
 157 225 l 1,4,5
 208 201 208 201 314 174.5 c 128,-1,6
 420 148 420 148 516 148 c 0,7,8
 657 148 657 148 722 220 c 128,-1,9
 787 292 787 292 787 435 c 2,10,-1
 787 1281 l 1,11,-1
 234 1281 l 1,12,-1
 234 1446 l 1,13,-1
 988 1446 l 1,14,-1
 988 431 l 2,15,16
 988 218 988 218 873.5 100.5 c 128,-1,17
 759 -17 759 -17 522 -17 c 0,0,1
EndSplineSet
EndChar

StartChar: K
Encoding: 75 75 46
Width: 1418
GlyphClass: 2
Flags: W
LayerCount: 2
Fore
SplineSet
218 0 m 1,0,-1
 218 1446 l 1,1,-1
 419 1446 l 1,2,-1
 419 657 l 1,3,4
 580 852 580 852 803.5 1105 c 128,-1,5
 1027 1358 1027 1358 1103 1446 c 1,6,-1
 1321 1446 l 1,7,-1
 778 798 l 1,8,-1
 1350 0 l 1,9,-1
 1127 0 l 1,10,-1
 637 690 l 1,11,-1
 419 468 l 1,12,-1
 419 0 l 1,13,-1
 218 0 l 1,0,-1
EndSplineSet
EndChar

StartChar: L
Encoding: 76 76 47
Width: 1145
GlyphClass: 2
Flags: W
LayerCount: 2
Fore
SplineSet
218 0 m 1,0,-1
 218 1446 l 1,1,-1
 419 1446 l 1,2,-1
 419 155 l 1,3,-1
 1068 155 l 1,4,-1
 1068 0 l 1,5,-1
 218 0 l 1,0,-1
EndSplineSet
EndChar

StartChar: M
Encoding: 77 77 48
Width: 1778
GlyphClass: 2
Flags: W
LayerCount: 2
Fore
SplineSet
218 0 m 1,0,-1
 218 1446 l 1,1,-1
 403 1446 l 1,2,-1
 890 638 l 1,3,-1
 1382 1446 l 1,4,-1
 1560 1446 l 1,5,-1
 1560 0 l 1,6,-1
 1370 0 l 1,7,-1
 1370 1121 l 1,8,-1
 965 458 l 1,9,-1
 816 458 l 1,10,-1
 410 1117 l 1,11,-1
 410 0 l 1,12,-1
 218 0 l 1,0,-1
EndSplineSet
EndChar

StartChar: N
Encoding: 78 78 49
Width: 1594
GlyphClass: 2
Flags: W
LayerCount: 2
Fore
SplineSet
218 0 m 1,0,-1
 218 1446 l 1,1,-1
 371 1446 l 1,2,-1
 1199 290 l 1,3,-1
 1199 1446 l 1,4,-1
 1376 1446 l 1,5,-1
 1376 0 l 1,6,-1
 1197 0 l 1,7,-1
 395 1104 l 1,8,-1
 395 0 l 1,9,-1
 218 0 l 1,0,-1
EndSplineSet
EndChar

StartChar: O
Encoding: 79 79 50
Width: 1546
GlyphClass: 2
Flags: W
LayerCount: 2
Fore
SplineSet
233 221 m 128,-1,1
 186 332 186 332 186 486 c 2,2,-1
 186 941 l 2,3,4
 186 1252 186 1252 362 1372 c 0,5,6
 504 1468 504 1468 782 1468 c 0,7,8
 1274 1468 1274 1468 1345 1102 c 0,9,10
 1360 1025 1360 1025 1360 928 c 2,11,-1
 1360 500 l 2,12,13
 1360 198 1360 198 1187 76 c 0,14,15
 1048 -22 1048 -22 795 -22 c 128,-1,16
 542 -22 542 -22 411 44 c 128,-1,0
 280 110 280 110 233 221 c 128,-1,1
1069 203.5 m 128,-1,18
 1159 267 1159 267 1159 455 c 2,19,-1
 1159 978 l 2,20,21
 1159 1166 1159 1166 1068.5 1236 c 128,-1,22
 978 1306 978 1306 782 1306 c 0,23,24
 478 1306 478 1306 413 1138 c 0,25,26
 388 1074 388 1074 388 978 c 2,27,-1
 388 455 l 2,28,29
 388 268 388 268 486 204 c 128,-1,30
 584 140 584 140 781.5 140 c 128,-1,17
 979 140 979 140 1069 203.5 c 128,-1,18
EndSplineSet
EndChar

StartChar: P
Encoding: 80 80 51
Width: 1326
GlyphClass: 2
Flags: W
LayerCount: 2
Fore
SplineSet
420 682 m 1,0,-1
 797 682 l 2,1,2
 974 682 974 682 992 888 c 0,3,4
 996 926 996 926 996 978 c 0,5,6
 996 1153 996 1153 948.5 1223 c 128,-1,7
 901 1293 901 1293 802 1293 c 2,8,-1
 420 1293 l 1,9,-1
 420 682 l 1,0,-1
218 0 m 1,10,-1
 218 1446 l 1,11,-1
 796 1446 l 2,12,13
 1198 1446 1198 1446 1198 991 c 0,14,15
 1198 743 1198 743 1093.5 636 c 128,-1,16
 989 529 989 529 793 529 c 2,17,-1
 420 529 l 1,18,-1
 420 0 l 1,19,-1
 218 0 l 1,10,-1
EndSplineSet
EndChar

StartChar: Q
Encoding: 81 81 52
Width: 1542
GlyphClass: 2
Flags: W
LayerCount: 2
Fore
SplineSet
1069 203.5 m 128,-1,1
 1159 267 1159 267 1159 455 c 2,2,-1
 1159 978 l 2,3,4
 1159 1166 1159 1166 1068.5 1236 c 128,-1,5
 978 1306 978 1306 782 1306 c 0,6,7
 478 1306 478 1306 413 1138 c 0,8,9
 388 1074 388 1074 388 978 c 2,10,-1
 388 455 l 2,11,12
 388 268 388 268 486 204 c 128,-1,13
 584 140 584 140 781.5 140 c 128,-1,0
 979 140 979 140 1069 203.5 c 128,-1,1
895 -17 m 1,14,-1
 1085 -308 l 1,15,-1
 944 -384 l 1,16,-1
 714 -21 l 1,17,18
 436 -9 436 -9 311 111 c 128,-1,19
 186 231 186 231 186 486 c 2,20,-1
 186 941 l 2,21,22
 186 1252 186 1252 362 1372 c 0,23,24
 504 1468 504 1468 782 1468 c 0,25,26
 1274 1468 1274 1468 1345 1102 c 0,27,28
 1360 1025 1360 1025 1360 928 c 2,29,-1
 1360 500 l 2,30,31
 1360 198 1360 198 1187 76 c 0,32,33
 1080 1 1080 1 895 -17 c 1,14,-1
EndSplineSet
EndChar

StartChar: R
Encoding: 82 82 53
Width: 1464
GlyphClass: 2
Flags: W
LayerCount: 2
Fore
SplineSet
420 752 m 1,0,-1
 846 752 l 2,1,2
 974 752 974 752 1019.5 821 c 128,-1,3
 1065 890 1065 890 1065 1016 c 0,4,5
 1064 1242 1064 1242 946 1282 c 0,6,7
 912 1294 912 1294 869 1293 c 2,8,-1
 420 1293 l 1,9,-1
 420 752 l 1,0,-1
218 0 m 1,10,-1
 218 1446 l 1,11,-1
 863 1446 l 2,12,13
 1162 1446 1162 1446 1238 1220 c 0,14,15
 1266 1136 1266 1136 1266.5 1020.5 c 128,-1,16
 1267 905 1267 905 1240 826.5 c 128,-1,17
 1213 748 1213 748 1170.5 705.5 c 128,-1,18
 1128 663 1128 663 1063 636 c 1,19,-1
 1370 0 l 1,20,-1
 1163 0 l 1,21,-1
 876 600 l 1,22,-1
 420 599 l 1,23,-1
 420 0 l 1,24,-1
 218 0 l 1,10,-1
EndSplineSet
EndChar

StartChar: S
Encoding: 83 83 54
Width: 1304
GlyphClass: 2
Flags: W
LayerCount: 2
Fore
SplineSet
367 1120 m 1,0,-1
 366 1087 l 1,1,2
 366 1015 366 1015 396.5 976 c 128,-1,3
 427 937 427 937 515 907 c 2,4,-1
 879 784 l 2,5,6
 982 748 982 748 1042 704 c 0,7,8
 1164 614 1164 614 1164 406 c 0,9,10
 1164 -22 1164 -22 691 -22 c 0,11,12
 377 -22 377 -22 144 113 c 1,13,-1
 215 267 l 1,14,15
 305 214 305 214 433.5 177 c 128,-1,16
 562 140 562 140 668.5 140 c 128,-1,17
 775 140 775 140 831.5 156.5 c 128,-1,18
 888 173 888 173 920 211 c 0,19,20
 978 278 978 278 978 437 c 0,21,22
 978 501 978 501 952 533 c 0,23,24
 907 587 907 587 802 620 c 1,25,-1
 453 736 l 2,26,27
 300 786 300 786 235.5 865 c 128,-1,28
 171 944 171 944 171 1089 c 0,29,30
 172 1282 172 1282 310 1382 c 0,31,32
 429 1468 429 1468 656 1468 c 0,33,34
 979 1468 979 1468 1141 1367 c 1,35,-1
 1092 1210 l 1,36,37
 914 1306 914 1306 691 1306 c 0,38,39
 536 1306 536 1306 452 1264 c 0,40,41
 368 1223 368 1223 367 1120 c 1,0,-1
EndSplineSet
EndChar

StartChar: T
Encoding: 84 84 55
Width: 1204
GlyphClass: 2
Flags: W
LayerCount: 2
Fore
SplineSet
501 0 m 1,0,-1
 501 1281 l 1,1,-1
 84 1281 l 1,2,-1
 84 1446 l 1,3,-1
 1120 1446 l 1,4,-1
 1120 1281 l 1,5,-1
 702 1281 l 1,6,-1
 702 0 l 1,7,-1
 501 0 l 1,0,-1
EndSplineSet
EndChar

StartChar: U
Encoding: 85 85 56
Width: 1538
GlyphClass: 2
Flags: W
LayerCount: 2
Fore
SplineSet
776 -22 m 0,0,1
 390 -22 390 -22 268 182 c 0,2,3
 200 296 200 296 200 473 c 2,4,-1
 200 1446 l 1,5,-1
 402 1446 l 1,6,-1
 402 452 l 2,7,8
 402 180 402 180 662 146 c 0,9,10
 713 140 713 140 788 140 c 0,11,12
 942 140 942 140 1039 200 c 128,-1,13
 1136 260 1136 260 1136 452 c 2,14,-1
 1136 1446 l 1,15,-1
 1338 1446 l 1,16,-1
 1338 473 l 2,17,18
 1338 192 1338 192 1172 74 c 0,19,20
 1036 -22 1036 -22 776 -22 c 0,0,1
EndSplineSet
EndChar

StartChar: V
Encoding: 86 86 57
Width: 1386
GlyphClass: 2
Flags: W
LayerCount: 2
Fore
SplineSet
602 0 m 1,0,-1
 86 1446 l 1,1,-1
 293 1446 l 1,2,-1
 692 294 l 1,3,-1
 1091 1446 l 1,4,-1
 1300 1446 l 1,5,-1
 779 0 l 1,6,-1
 602 0 l 1,0,-1
EndSplineSet
EndChar

StartChar: W
Encoding: 87 87 58
Width: 2048
GlyphClass: 2
Flags: W
LayerCount: 2
Fore
SplineSet
522 0 m 1,0,-1
 112 1446 l 1,1,-1
 296 1446 l 1,2,-1
 603 346 l 1,3,-1
 918 1446 l 1,4,-1
 1133 1446 l 1,5,-1
 1462 346 l 1,6,-1
 1753 1446 l 1,7,-1
 1936 1446 l 1,8,-1
 1542 0 l 1,9,-1
 1390 0 l 1,10,-1
 1037 1232 l 1,11,-1
 674 0 l 1,12,-1
 522 0 l 1,0,-1
EndSplineSet
EndChar

StartChar: X
Encoding: 88 88 59
Width: 1336
GlyphClass: 2
Flags: W
LayerCount: 2
Fore
SplineSet
94 0 m 1,0,-1
 565 731 l 1,1,-1
 116 1446 l 1,2,-1
 319 1446 l 1,3,-1
 669 898 l 1,4,-1
 1010 1446 l 1,5,-1
 1227 1446 l 1,6,-1
 773 734 l 1,7,-1
 1242 0 l 1,8,-1
 1024 0 l 1,9,-1
 667 568 l 1,10,-1
 306 0 l 1,11,-1
 94 0 l 1,0,-1
EndSplineSet
EndChar

StartChar: Y
Encoding: 89 89 60
Width: 1318
GlyphClass: 2
Flags: W
LayerCount: 2
Fore
SplineSet
560 0 m 1,0,-1
 560 568 l 1,1,-1
 48 1446 l 1,2,-1
 261 1446 l 1,3,-1
 661 744 l 1,4,-1
 1063 1446 l 1,5,-1
 1270 1446 l 1,6,-1
 761 568 l 1,7,-1
 761 0 l 1,8,-1
 560 0 l 1,0,-1
EndSplineSet
EndChar

StartChar: Z
Encoding: 90 90 61
Width: 1242
GlyphClass: 2
Flags: W
LayerCount: 2
Fore
SplineSet
180 0 m 1,0,-1
 180 150 l 1,1,-1
 862 1281 l 1,2,-1
 211 1281 l 1,3,-1
 211 1446 l 1,4,-1
 1083 1446 l 1,5,-1
 1083 1295 l 1,6,-1
 402 165 l 1,7,-1
 1096 165 l 1,8,-1
 1096 0 l 1,9,-1
 180 0 l 1,0,-1
EndSplineSet
EndChar

StartChar: bracketleft
Encoding: 91 91 62
Width: 768
GlyphClass: 2
Flags: W
LayerCount: 2
Fore
SplineSet
256 -76 m 1,0,-1
 256 1529 l 1,1,-1
 634 1529 l 1,2,-1
 634 1396 l 1,3,-1
 444 1396 l 1,4,-1
 444 58 l 1,5,-1
 634 58 l 1,6,-1
 634 -76 l 1,7,-1
 256 -76 l 1,0,-1
EndSplineSet
EndChar

StartChar: backslash
Encoding: 92 92 63
Width: 768
GlyphClass: 2
Flags: W
LayerCount: 2
Fore
SplineSet
521 0 m 1,0,-1
 64 1506 l 1,1,-1
 251 1506 l 1,2,-1
 704 0 l 1,3,-1
 521 0 l 1,0,-1
EndSplineSet
EndChar

StartChar: bracketright
Encoding: 93 93 64
Width: 768
GlyphClass: 2
Flags: W
LayerCount: 2
Fore
SplineSet
195 -76 m 1,0,-1
 195 57 l 1,1,-1
 385 57 l 1,2,-1
 385 1395 l 1,3,-1
 195 1395 l 1,4,-1
 195 1529 l 1,5,-1
 573 1529 l 1,6,-1
 573 -76 l 1,7,-1
 195 -76 l 1,0,-1
EndSplineSet
EndChar

StartChar: asciicircum
Encoding: 94 94 65
Width: 1257
GlyphClass: 2
Flags: W
LayerCount: 2
Fore
SplineSet
154 626 m 1,0,-1
 513 1283 l 1,1,-1
 735 1283 l 1,2,-1
 1103 626 l 1,3,-1
 910 626 l 1,4,-1
 628 1161 l 1,5,-1
 348 626 l 1,6,-1
 154 626 l 1,0,-1
EndSplineSet
EndChar

StartChar: underscore
Encoding: 95 95 66
Width: 929
GlyphClass: 2
Flags: W
LayerCount: 2
Fore
SplineSet
14 -104 m 1,0,-1
 14 46 l 1,1,-1
 915 46 l 1,2,-1
 915 -104 l 1,3,-1
 14 -104 l 1,0,-1
EndSplineSet
EndChar

StartChar: grave
Encoding: 96 96 67
Width: 616
GlyphClass: 2
Flags: W
LayerCount: 2
Fore
SplineSet
372 1165 m 1,0,-1
 115 1506 l 1,1,-1
 340 1506 l 1,2,-1
 478 1165 l 1,3,-1
 372 1165 l 1,0,-1
EndSplineSet
EndChar

StartChar: a
Encoding: 97 97 68
Width: 1172
GlyphClass: 2
Flags: W
LayerCount: 2
Fore
SplineSet
368.5 386 m 128,-1,1
 314 345 314 345 314 270.5 c 128,-1,2
 314 196 314 196 364.5 158 c 128,-1,3
 415 120 415 120 486.5 120 c 128,-1,4
 558 120 558 120 616 138.5 c 128,-1,5
 674 157 674 157 720.5 193.5 c 128,-1,6
 767 230 767 230 781 277 c 1,7,-1
 781 583 l 1,8,9
 708 510 708 510 565.5 468.5 c 128,-1,0
 423 427 423 427 368.5 386 c 128,-1,1
471 -22 m 0,10,11
 310 -22 310 -22 221 65.5 c 128,-1,12
 132 153 132 153 132 283 c 0,13,14
 132 357 132 357 163 406 c 0,15,16
 226 506 226 506 539 597 c 1,17,18
 693 640 693 640 724 664.5 c 128,-1,19
 755 689 755 689 761 700 c 0,20,21
 781 738 781 738 781 794 c 128,-1,22
 781 850 781 850 744.5 893 c 128,-1,23
 708 936 708 936 586 936 c 0,24,25
 414 936 414 936 375 870 c 0,26,27
 355 836 355 836 355 778 c 2,28,-1
 355 731 l 1,29,-1
 174 731 l 1,30,-1
 174 779 l 2,31,32
 174 934 174 934 277.5 1007 c 128,-1,33
 381 1080 381 1080 587 1080 c 128,-1,34
 793 1080 793 1080 881 986.5 c 128,-1,35
 969 893 969 893 969 720 c 2,36,-1
 969 268 l 2,37,38
 969 185 969 185 990 160.5 c 128,-1,39
 1011 136 1011 136 1080 136 c 1,40,-1
 1058 -8 l 1,41,-1
 1020 -8 l 2,42,43
 920 -8 920 -8 871 30.5 c 128,-1,44
 822 69 822 69 796 150 c 1,45,46
 713 26 713 26 596 -6 c 0,47,48
 540 -22 540 -22 471 -22 c 0,10,11
EndSplineSet
EndChar

StartChar: b
Encoding: 98 98 69
Width: 1204
GlyphClass: 2
Flags: W
LayerCount: 2
Fore
SplineSet
868 750 m 2,0,1
 868 936 868 936 633 936 c 0,2,3
 518 936 518 936 374 870 c 1,4,-1
 374 188 l 1,5,6
 484 126 484 126 598.5 126 c 128,-1,7
 713 126 713 126 790.5 181.5 c 128,-1,8
 868 237 868 237 868 332 c 2,9,-1
 868 750 l 2,0,1
374 1010 m 1,10,11
 498 1080 498 1080 673 1080 c 128,-1,12
 848 1080 848 1080 952 987 c 128,-1,13
 1056 894 1056 894 1056 736 c 2,14,-1
 1056 352 l 2,15,16
 1056 187 1056 187 942 82.5 c 128,-1,17
 828 -22 828 -22 626 -22 c 0,18,19
 498 -22 498 -22 349 71 c 1,20,-1
 325 0 l 1,21,-1
 186 0 l 1,22,-1
 186 1506 l 1,23,-1
 374 1506 l 1,24,-1
 374 1010 l 1,10,11
EndSplineSet
EndChar

StartChar: c
Encoding: 99 99 70
Width: 1110
GlyphClass: 2
Flags: W
LayerCount: 2
Fore
SplineSet
579 -22 m 0,0,1
 254 -22 254 -22 172 204 c 0,2,3
 148 268 148 268 148 344 c 2,4,-1
 148 748 l 2,5,6
 148 899 148 899 263 989.5 c 128,-1,7
 378 1080 378 1080 574 1080 c 0,8,9
 824 1080 824 1080 918 972 c 0,10,11
 992 888 992 888 992 724 c 1,12,-1
 813 707 l 1,13,14
 813 849 813 849 763 893 c 0,15,16
 713 936 713 936 583.5 936 c 128,-1,17
 454 936 454 936 395 891 c 128,-1,18
 336 846 336 846 336 743 c 2,19,-1
 336 328 l 2,20,21
 336 218 336 218 398 170 c 128,-1,22
 460 122 460 122 589.5 122 c 128,-1,23
 719 122 719 122 762.5 156 c 128,-1,24
 806 190 806 190 816 310 c 1,25,-1
 990 310 l 1,26,27
 974 126 974 126 884 52 c 128,-1,28
 794 -22 794 -22 579 -22 c 0,0,1
EndSplineSet
EndChar

StartChar: d
Encoding: 100 100 71
Width: 1200
GlyphClass: 2
Flags: W
LayerCount: 2
Fore
SplineSet
403.5 176 m 128,-1,1
 471 126 471 126 562 126 c 0,2,3
 724 126 724 126 826 189 c 1,4,-1
 826 892 l 1,5,6
 735 936 735 936 605 936 c 0,7,8
 336 936 336 936 336 756 c 2,9,-1
 336 321 l 2,10,0
 336 226 336 226 403.5 176 c 128,-1,1
591 1080 m 0,11,12
 719 1080 719 1080 826 1040 c 1,13,-1
 826 1506 l 1,14,-1
 1014 1506 l 1,15,-1
 1014 0 l 1,16,-1
 886 0 l 1,17,-1
 855 70 l 1,18,19
 806 32 806 32 726 5 c 128,-1,20
 646 -22 646 -22 568 -22 c 0,21,22
 351 -22 351 -22 249.5 74.5 c 128,-1,23
 148 171 148 171 148 335 c 2,24,-1
 148 735 l 2,25,26
 148 900 148 900 257 990 c 128,-1,27
 366 1080 366 1080 591 1080 c 0,11,12
EndSplineSet
EndChar

StartChar: e
Encoding: 101 101 72
Width: 1158
GlyphClass: 2
Flags: W
LayerCount: 2
Fore
SplineSet
336 633 m 1,0,-1
 824 633 l 1,1,-1
 824 778 l 2,2,3
 824 868 824 868 762.5 902 c 128,-1,4
 701 936 701 936 582 936 c 128,-1,5
 463 936 463 936 399.5 895 c 128,-1,6
 336 854 336 854 336 760 c 2,7,-1
 336 633 l 1,0,-1
589 -22 m 0,8,9
 356 -22 356 -22 252 75 c 128,-1,10
 148 172 148 172 148 374 c 2,11,-1
 148 743 l 2,12,13
 148 900 148 900 255 990 c 128,-1,14
 362 1080 362 1080 578.5 1080 c 128,-1,15
 795 1080 795 1080 900.5 996.5 c 128,-1,16
 1006 913 1006 913 1006 758 c 2,17,-1
 1006 506 l 1,18,-1
 336 506 l 1,19,-1
 336 357 l 2,20,21
 336 225 336 225 389 173.5 c 128,-1,22
 442 122 442 122 580 122 c 0,23,24
 718 122 718 122 736 128 c 128,-1,25
 754 134 754 134 773 142 c 128,-1,26
 792 150 792 150 799.5 161 c 128,-1,27
 807 172 807 172 819 195 c 0,28,29
 831 218 831 218 838 282 c 1,30,-1
 1004 282 l 1,31,32
 994 187 994 187 970.5 129 c 128,-1,33
 947 71 947 71 896.5 36.5 c 128,-1,34
 846 2 846 2 775.5 -10 c 128,-1,35
 705 -22 705 -22 589 -22 c 0,8,9
EndSplineSet
EndChar

StartChar: f
Encoding: 102 102 73
Width: 790
GlyphClass: 2
Flags: W
LayerCount: 2
Fore
SplineSet
287 0 m 1,0,-1
 287 918 l 1,1,-1
 110 918 l 1,2,-1
 110 1060 l 1,3,-1
 287 1060 l 1,4,-1
 287 1221 l 2,5,6
 287 1368 287 1368 367.5 1436.5 c 128,-1,7
 448 1505 448 1505 613 1505 c 2,8,-1
 732 1505 l 1,9,-1
 744 1372 l 1,10,-1
 628 1372 l 2,11,12
 475 1372 475 1372 475 1239 c 2,13,-1
 475 1060 l 1,14,-1
 732 1060 l 1,15,-1
 732 918 l 1,16,-1
 475 918 l 1,17,-1
 475 0 l 1,18,-1
 287 0 l 1,0,-1
EndSplineSet
EndChar

StartChar: g
Encoding: 103 103 74
Width: 1186
GlyphClass: 2
Flags: W
LayerCount: 2
Fore
SplineSet
822 790 m 2,0,1
 822 936 822 936 579 936 c 128,-1,2
 336 936 336 936 336 748 c 2,3,-1
 336 350 l 2,4,5
 336 184 336 184 579 184 c 0,6,7
 722 184 722 184 822 264 c 1,8,-1
 822 790 l 2,0,1
295 -227 m 1,9,10
 399 -265 399 -265 550 -265 c 128,-1,11
 701 -265 701 -265 761.5 -208 c 128,-1,12
 822 -151 822 -151 822 -31 c 2,13,-1
 822 116 l 1,14,15
 781 78 781 78 699.5 59 c 128,-1,16
 618 40 618 40 550 40 c 0,17,18
 148 40 148 40 148 379 c 2,19,-1
 148 728 l 2,20,21
 148 893 148 893 248.5 986.5 c 128,-1,22
 349 1080 349 1080 550 1080 c 0,23,24
 630 1080 630 1080 714.5 1046.5 c 128,-1,25
 799 1013 799 1013 822 975 c 1,26,-1
 822 1060 l 1,27,-1
 1010 1060 l 1,28,-1
 1010 25 l 2,29,30
 1010 -166 1010 -166 910 -287 c 0,31,32
 810 -408 810 -408 585.5 -408 c 128,-1,33
 361 -408 361 -408 253 -368 c 1,34,-1
 295 -227 l 1,9,10
EndSplineSet
EndChar

StartChar: h
Encoding: 104 104 75
Width: 1226
GlyphClass: 2
Flags: W
LayerCount: 2
Fore
SplineSet
862 783 m 2,0,1
 862 936 862 936 626 936 c 0,2,3
 508 936 508 936 441 887 c 128,-1,4
 374 838 374 838 374 758 c 2,5,-1
 374 0 l 1,6,-1
 186 0 l 1,7,-1
 186 1505 l 1,8,-1
 374 1505 l 1,9,-1
 374 960 l 1,10,11
 477 1080 477 1080 690 1080 c 0,12,13
 960 1080 960 1080 1030 892 c 0,14,15
 1050 838 1050 838 1050 773 c 2,16,-1
 1050 0 l 1,17,-1
 862 0 l 1,18,-1
 862 783 l 2,0,1
EndSplineSet
EndChar

StartChar: i
Encoding: 105 105 76
Width: 596
GlyphClass: 2
Flags: W
LayerCount: 2
Fore
SplineSet
206 1251 m 1,0,-1
 206 1446 l 1,1,-1
 394 1446 l 1,2,-1
 394 1251 l 1,3,-1
 206 1251 l 1,0,-1
206 0 m 1,4,-1
 206 1060 l 1,5,-1
 394 1060 l 1,6,-1
 394 0 l 1,7,-1
 206 0 l 1,4,-1
EndSplineSet
EndChar

StartChar: j
Encoding: 106 106 77
Width: 602
GlyphClass: 2
Flags: W
LayerCount: 2
Fore
SplineSet
232 1251 m 1,0,-1
 232 1446 l 1,1,-1
 420 1446 l 1,2,-1
 420 1251 l 1,3,-1
 232 1251 l 1,0,-1
32 -353 m 1,4,-1
 13 -197 l 1,5,-1
 42 -197 l 2,6,7
 144 -197 144 -197 178 -170.5 c 128,-1,8
 212 -144 212 -144 222 -105.5 c 128,-1,9
 232 -67 232 -67 232 -4 c 2,10,-1
 232 1060 l 1,11,-1
 420 1060 l 1,12,-1
 420 7 l 2,13,14
 420 -254 420 -254 300 -316 c 0,15,16
 229 -353 229 -353 98 -353 c 2,17,-1
 32 -353 l 1,4,-1
EndSplineSet
EndChar

StartChar: k
Encoding: 107 107 78
Width: 1152
GlyphClass: 2
Flags: W
LayerCount: 2
Fore
SplineSet
186 0 m 1,0,-1
 186 1506 l 1,1,-1
 374 1506 l 1,2,-1
 374 524 l 1,3,-1
 881 1060 l 1,4,-1
 1087 1060 l 1,5,-1
 656 594 l 1,6,-1
 1130 0 l 1,7,-1
 913 0 l 1,8,-1
 533 492 l 1,9,-1
 374 334 l 1,10,-1
 374 0 l 1,11,-1
 186 0 l 1,0,-1
EndSplineSet
EndChar

StartChar: l
Encoding: 108 108 79
Width: 696
GlyphClass: 2
Flags: W
LayerCount: 2
Fore
SplineSet
530 -8 m 2,0,1
 437 -8 437 -8 378 6 c 128,-1,2
 319 20 319 20 274 59 c 0,3,4
 190 132 190 132 190 358 c 2,5,-1
 190 1505 l 1,6,-1
 378 1505 l 1,7,-1
 378 356 l 2,8,9
 378 228 378 228 416 189 c 128,-1,10
 454 150 454 150 573 150 c 2,11,-1
 606 150 l 1,12,-1
 584 -8 l 1,13,-1
 530 -8 l 2,0,1
EndSplineSet
EndChar

StartChar: m
Encoding: 109 109 80
Width: 1860
GlyphClass: 2
Flags: W
LayerCount: 2
Fore
SplineSet
844 781 m 2,0,1
 844 936 844 936 615 936 c 0,2,3
 499 936 499 936 436.5 886.5 c 128,-1,4
 374 837 374 837 374 755 c 2,5,-1
 374 0 l 1,6,-1
 186 0 l 1,7,-1
 186 1060 l 1,8,-1
 374 1060 l 1,9,-1
 374 957 l 1,10,11
 480 1080 480 1080 692.5 1080 c 128,-1,12
 905 1080 905 1080 989 941 c 1,13,-1
 1014 965 l 1,14,15
 1129 1080 1129 1080 1336 1080 c 0,16,17
 1603 1080 1603 1080 1666 890 c 0,18,19
 1684 836 1684 836 1684 770 c 2,20,-1
 1684 0 l 1,21,-1
 1496 0 l 1,22,-1
 1496 781 l 2,23,24
 1496 936 1496 936 1288 936 c 0,25,26
 1157 936 1157 936 1094.5 886.5 c 128,-1,27
 1032 837 1032 837 1032 755 c 2,28,-1
 1032 0 l 1,29,-1
 844 0 l 1,30,-1
 844 781 l 2,0,1
EndSplineSet
EndChar

StartChar: n
Encoding: 110 110 81
Width: 1226
GlyphClass: 2
Flags: W
LayerCount: 2
Fore
SplineSet
862 781 m 2,0,1
 862 936 862 936 625 936 c 0,2,3
 508 936 508 936 441 886 c 128,-1,4
 374 836 374 836 374 755 c 2,5,-1
 374 0 l 1,6,-1
 186 0 l 1,7,-1
 186 1060 l 1,8,-1
 374 1060 l 1,9,-1
 374 957 l 1,10,11
 480 1080 480 1080 688 1080 c 0,12,13
 958 1080 958 1080 1030 890 c 0,14,15
 1050 836 1050 836 1050 770 c 2,16,-1
 1050 0 l 1,17,-1
 862 0 l 1,18,-1
 862 781 l 2,0,1
EndSplineSet
EndChar

StartChar: o
Encoding: 111 111 82
Width: 1174
GlyphClass: 2
Flags: W
LayerCount: 2
Fore
SplineSet
919.5 68.5 m 128,-1,1
 813 -22 813 -22 586 -22 c 128,-1,2
 359 -22 359 -22 253.5 68 c 128,-1,3
 148 158 148 158 148 315 c 2,4,-1
 148 742 l 2,5,6
 148 899 148 899 253.5 989.5 c 128,-1,7
 359 1080 359 1080 586 1080 c 128,-1,8
 813 1080 813 1080 919.5 989 c 128,-1,9
 1026 898 1026 898 1026 742 c 2,10,-1
 1026 315 l 2,11,0
 1026 159 1026 159 919.5 68.5 c 128,-1,1
587 122 m 128,-1,13
 838 122 838 122 838 299 c 2,14,-1
 838 758 l 2,15,16
 838 936 838 936 587 936 c 128,-1,17
 336 936 336 936 336 758 c 2,18,-1
 336 299 l 2,19,12
 336 122 336 122 587 122 c 128,-1,13
EndSplineSet
EndChar

StartChar: p
Encoding: 112 112 83
Width: 1198
GlyphClass: 2
Flags: W
LayerCount: 2
Fore
SplineSet
374 179 m 1,0,1
 475 122 475 122 600 122 c 128,-1,2
 725 122 725 122 793.5 175 c 128,-1,3
 862 228 862 228 862 324 c 2,4,-1
 862 744 l 2,5,6
 862 836 862 836 794.5 886 c 128,-1,7
 727 936 727 936 629.5 936 c 128,-1,8
 532 936 532 936 463.5 896 c 128,-1,9
 395 856 395 856 374 824 c 1,10,-1
 374 179 l 1,0,1
186 -408 m 1,11,-1
 186 1060 l 1,12,-1
 334 1060 l 1,13,-1
 356 980 l 1,14,15
 402 1021 402 1021 482 1050.5 c 128,-1,16
 562 1080 562 1080 648 1080 c 0,17,18
 845 1080 845 1080 947.5 984 c 128,-1,19
 1050 888 1050 888 1050 729 c 2,20,-1
 1050 344 l 2,21,22
 1050 180 1050 180 938 79 c 128,-1,23
 826 -22 826 -22 624 -22 c 0,24,25
 484 -22 484 -22 374 34 c 1,26,-1
 374 -408 l 1,27,-1
 186 -408 l 1,11,-1
EndSplineSet
EndChar

StartChar: q
Encoding: 113 113 84
Width: 1200
GlyphClass: 2
Flags: W
LayerCount: 2
Fore
SplineSet
585 122 m 0,0,1
 678 122 678 122 746.5 150.5 c 128,-1,2
 815 179 815 179 826 201 c 1,3,-1
 826 810 l 2,4,5
 826 860 826 860 765 898 c 128,-1,6
 704 936 704 936 588 936 c 128,-1,7
 472 936 472 936 404 889 c 128,-1,8
 336 842 336 842 336 748 c 2,9,-1
 336 284 l 2,10,11
 336 122 336 122 585 122 c 0,0,1
826 -408 m 1,12,-1
 826 47 l 1,13,14
 781 13 781 13 709 -4.5 c 128,-1,15
 637 -22 637 -22 573 -22 c 0,16,17
 372 -22 372 -22 260 68.5 c 128,-1,18
 148 159 148 159 148 314 c 2,19,-1
 148 728 l 2,20,21
 148 892 148 892 253 986 c 128,-1,22
 358 1080 358 1080 560 1080 c 0,23,24
 639 1080 639 1080 721 1046.5 c 128,-1,25
 803 1013 803 1013 826 975 c 1,26,-1
 826 1060 l 1,27,-1
 1014 1060 l 1,28,-1
 1014 -408 l 1,29,-1
 826 -408 l 1,12,-1
EndSplineSet
EndChar

StartChar: r
Encoding: 114 114 85
Width: 794
GlyphClass: 2
Flags: W
LayerCount: 2
Fore
SplineSet
186 0 m 1,0,-1
 186 1060 l 1,1,-1
 374 1060 l 1,2,-1
 374 910 l 1,3,4
 410 1008 410 1008 569 1052 c 0,5,6
 652 1076 652 1076 742 1075 c 1,7,-1
 736 914 l 1,8,9
 600 914 600 914 487 860 c 128,-1,10
 374 806 374 806 374 742 c 2,11,-1
 374 0 l 1,12,-1
 186 0 l 1,0,-1
EndSplineSet
EndChar

StartChar: s
Encoding: 115 115 86
Width: 992
GlyphClass: 2
Flags: W
LayerCount: 2
Fore
SplineSet
503 122 m 0,0,1
 716 122 716 122 716 281 c 0,2,3
 716 350 716 350 697 383.5 c 128,-1,4
 678 417 678 417 608 443 c 2,5,-1
 356 536 l 1,6,7
 240 577 240 577 194.5 633.5 c 128,-1,8
 149 690 149 690 149 775 c 128,-1,9
 149 860 149 860 166 911.5 c 128,-1,10
 183 963 183 963 222 1002 c 0,11,12
 300 1080 300 1080 502 1080 c 128,-1,13
 704 1080 704 1080 850 1022 c 1,14,-1
 807 878 l 1,15,16
 756 899 756 899 673 917.5 c 128,-1,17
 590 936 590 936 538 936 c 0,18,19
 370 936 370 936 339 878 c 0,20,21
 324 849 324 849 324 799 c 128,-1,22
 324 749 324 749 342.5 725.5 c 128,-1,23
 361 702 361 702 415 683 c 1,24,-1
 664 585 l 2,25,26
 794 534 794 534 835 472.5 c 128,-1,27
 876 411 876 411 876 279 c 128,-1,28
 876 147 876 147 791 62.5 c 128,-1,29
 706 -22 706 -22 528 -22 c 0,30,31
 398 -22 398 -22 297 6 c 128,-1,32
 196 34 196 34 142 64 c 1,33,-1
 188 202 l 1,34,35
 331 122 331 122 503 122 c 0,0,1
EndSplineSet
EndChar

StartChar: t
Encoding: 116 116 87
Width: 840
GlyphClass: 2
Flags: W
LayerCount: 2
Fore
SplineSet
676 -8 m 2,0,1
 454 -8 454 -8 355.5 62 c 128,-1,2
 257 132 257 132 257 303 c 2,3,-1
 257 918 l 1,4,-1
 80 918 l 1,5,-1
 80 1060 l 1,6,-1
 264 1060 l 1,7,-1
 287 1388 l 1,8,-1
 445 1388 l 1,9,-1
 445 1060 l 1,10,-1
 711 1060 l 1,11,-1
 711 918 l 1,12,-1
 445 918 l 1,13,-1
 445 315 l 2,14,15
 445 215 445 215 502.5 182.5 c 128,-1,16
 560 150 560 150 703 150 c 2,17,-1
 724 150 l 1,18,-1
 704 -8 l 1,19,-1
 676 -8 l 2,0,1
EndSplineSet
EndChar

StartChar: u
Encoding: 117 117 88
Width: 1224
GlyphClass: 2
Flags: W
LayerCount: 2
Fore
SplineSet
541 -22 m 0,0,1
 270 -22 270 -22 197 170 c 0,2,3
 176 225 176 225 176 290 c 2,4,-1
 176 1060 l 1,5,-1
 364 1060 l 1,6,-1
 364 289 l 2,7,8
 364 211 364 211 421.5 166.5 c 128,-1,9
 479 122 479 122 593 122 c 128,-1,10
 707 122 707 122 778.5 178.5 c 128,-1,11
 850 235 850 235 850 309 c 2,12,-1
 850 1060 l 1,13,-1
 1038 1060 l 1,14,-1
 1038 0 l 1,15,-1
 870 0 l 1,16,-1
 850 133 l 1,17,18
 762 -22 762 -22 541 -22 c 0,0,1
EndSplineSet
EndChar

StartChar: v
Encoding: 118 118 89
Width: 1104
GlyphClass: 2
Flags: W
LayerCount: 2
Fore
SplineSet
475 0 m 1,0,-1
 64 1060 l 1,1,-1
 253 1060 l 1,2,-1
 572 200 l 1,3,-1
 856 1060 l 1,4,-1
 1040 1060 l 1,5,-1
 665 0 l 1,6,-1
 475 0 l 1,0,-1
EndSplineSet
EndChar

StartChar: w
Encoding: 119 119 90
Width: 1614
GlyphClass: 2
Flags: W
LayerCount: 2
Fore
SplineSet
357 0 m 1,0,-1
 52 1060 l 1,1,-1
 224 1060 l 1,2,-1
 459 228 l 1,3,-1
 714 1060 l 1,4,-1
 895 1060 l 1,5,-1
 1161 228 l 1,6,-1
 1388 1060 l 1,7,-1
 1562 1060 l 1,8,-1
 1252 0 l 1,9,-1
 1077 0 l 1,10,-1
 806 845 l 1,11,-1
 535 0 l 1,12,-1
 357 0 l 1,0,-1
EndSplineSet
EndChar

StartChar: x
Encoding: 120 120 91
Width: 1056
GlyphClass: 2
Flags: W
LayerCount: 2
Fore
SplineSet
64 0 m 1,0,-1
 441 533 l 1,1,-1
 70 1060 l 1,2,-1
 259 1060 l 1,3,-1
 535 666 l 1,4,-1
 814 1060 l 1,5,-1
 995 1060 l 1,6,-1
 626 535 l 1,7,-1
 1000 0 l 1,8,-1
 817 0 l 1,9,-1
 534 403 l 1,10,-1
 251 0 l 1,11,-1
 64 0 l 1,0,-1
EndSplineSet
EndChar

StartChar: y
Encoding: 121 121 92
Width: 1118
GlyphClass: 2
Flags: W
LayerCount: 2
Fore
SplineSet
198 -406 m 1,0,-1
 198 -259 l 1,1,2
 322 -259 322 -259 398.5 -198 c 128,-1,3
 475 -137 475 -137 513 4 c 1,4,-1
 76 1060 l 1,5,-1
 275 1060 l 1,6,-1
 599 216 l 1,7,-1
 870 1060 l 1,8,-1
 1060 1060 l 1,9,-1
 712 45 l 2,10,11
 643 -156 643 -156 587.5 -233.5 c 128,-1,12
 532 -311 532 -311 481 -342 c 0,13,14
 376 -406 376 -406 198 -406 c 1,0,-1
EndSplineSet
EndChar

StartChar: z
Encoding: 122 122 93
Width: 964
GlyphClass: 2
Flags: W
LayerCount: 2
Fore
SplineSet
140 0 m 1,0,-1
 140 118 l 1,1,-1
 647 936 l 1,2,-1
 158 936 l 1,3,-1
 158 1060 l 1,4,-1
 845 1060 l 1,5,-1
 845 945 l 1,6,-1
 335 124 l 1,7,-1
 854 124 l 1,8,-1
 854 0 l 1,9,-1
 140 0 l 1,0,-1
EndSplineSet
EndChar

StartChar: braceleft
Encoding: 123 123 94
Width: 952
GlyphClass: 2
Flags: W
LayerCount: 2
Fore
SplineSet
474 650 m 1,0,1
 578 599 578 599 578 297 c 2,2,-1
 578 235 l 2,3,4
 578 105 578 105 584.5 79 c 128,-1,5
 591 53 591 53 598.5 32 c 128,-1,6
 606 11 606 11 616 1.5 c 128,-1,7
 626 -8 626 -8 642 -20 c 0,8,9
 689 -56 689 -56 866 -56 c 1,10,-1
 866 -207 l 1,11,12
 620 -206 620 -206 530 -152 c 0,13,14
 494 -130 494 -130 470 -112.5 c 128,-1,15
 446 -95 446 -95 422 -41 c 0,16,17
 386 38 386 38 386 203 c 2,18,-1
 386 384 l 2,19,20
 386 492 386 492 370.5 522.5 c 0,21,22
 355 552 355 552 346 556 c 0,23,24
 301 574 301 574 259 574 c 2,25,-1
 158 574 l 1,26,-1
 158 725 l 1,27,-1
 229 725 l 2,28,29
 268 725 268 725 291.5 725.5 c 128,-1,30
 315 726 315 726 337 739.5 c 128,-1,31
 359 753 359 753 366 763.5 c 128,-1,32
 373 774 373 774 379.5 815.5 c 128,-1,33
 386 857 386 857 386 890 c 2,34,-1
 386 1046 l 2,35,36
 386 1226 386 1226 396 1263 c 128,-1,37
 406 1300 406 1300 418 1334.5 c 128,-1,38
 430 1369 430 1369 448 1387 c 128,-1,39
 466 1405 466 1405 491.5 1428.5 c 128,-1,40
 517 1452 517 1452 552.5 1463 c 128,-1,41
 588 1474 588 1474 651.5 1490 c 128,-1,42
 715 1506 715 1506 866 1506 c 1,43,-1
 866 1355 l 1,44,45
 751 1355 751 1355 711 1344 c 128,-1,46
 671 1333 671 1333 651 1325 c 128,-1,47
 631 1317 631 1317 610 1286 c 0,48,49
 578 1240 578 1240 578 1112 c 2,50,-1
 578 1002 l 2,51,52
 578 701 578 701 474 650 c 1,0,1
EndSplineSet
EndChar

StartChar: bar
Encoding: 124 124 95
Width: 690
GlyphClass: 2
Flags: W
LayerCount: 2
Fore
SplineSet
256 -167 m 1,0,-1
 256 1555 l 1,1,-1
 434 1555 l 1,2,-1
 434 -167 l 1,3,-1
 256 -167 l 1,0,-1
EndSplineSet
EndChar

StartChar: braceright
Encoding: 125 125 96
Width: 952
GlyphClass: 2
Flags: W
LayerCount: 2
Fore
SplineSet
520 649 m 1,0,1
 416 700 416 700 416 1002 c 2,2,-1
 416 1064 l 2,3,4
 416 1224 416 1224 404 1249.5 c 128,-1,5
 392 1275 392 1275 377.5 1296 c 128,-1,6
 363 1317 363 1317 343 1325 c 128,-1,7
 323 1333 323 1333 283 1344 c 128,-1,8
 243 1355 243 1355 128 1355 c 1,9,-1
 128 1506 l 1,10,11
 374 1506 374 1506 464 1452 c 0,12,13
 500 1430 500 1430 524 1412 c 128,-1,14
 548 1394 548 1394 572 1340 c 0,15,16
 608 1261 608 1261 608 1096 c 2,17,-1
 608 916 l 2,18,19
 608 808 608 808 623.5 777 c 128,-1,20
 639 746 639 746 648 742 c 0,21,22
 693 724 693 724 735 725 c 2,23,-1
 836 725 l 1,24,-1
 836 574 l 1,25,-1
 765 574 l 2,26,27
 726 574 726 574 702.5 573.5 c 128,-1,28
 679 573 679 573 657 559.5 c 128,-1,29
 635 546 635 546 628 535.5 c 128,-1,30
 621 525 621 525 614.5 483.5 c 128,-1,31
 608 442 608 442 608 409 c 2,32,-1
 608 253 l 2,33,34
 608 55 608 55 594 16 c 0,35,36
 558 -88 558 -88 524 -113 c 0,37,38
 446 -172 446 -172 380 -184 c 0,39,40
 263 -207 263 -207 128 -207 c 1,41,-1
 128 -56 l 1,42,43
 243 -56 243 -56 283 -45 c 128,-1,44
 323 -34 323 -34 343 -26 c 128,-1,45
 363 -18 363 -18 384 13 c 0,46,47
 416 59 416 59 416 187 c 2,48,-1
 416 297 l 2,49,50
 416 598 416 598 520 649 c 1,0,1
EndSplineSet
EndChar

StartChar: asciitilde
Encoding: 126 126 97
Width: 881
GlyphClass: 2
Flags: W
LayerCount: 2
Fore
SplineSet
126.5 1251.5 m 128,-1,1
 64 1330 64 1330 64 1452 c 1,2,-1
 161 1452 l 1,3,4
 161 1398 161 1398 188 1358.5 c 128,-1,5
 215 1319 215 1319 262 1319 c 0,6,7
 309 1320 309 1320 379 1370 c 0,8,9
 512 1466 512 1466 602 1466 c 128,-1,10
 692 1466 692 1466 754.5 1387.5 c 128,-1,11
 817 1309 817 1309 817 1187 c 1,12,-1
 720 1187 l 1,13,14
 720 1241 720 1241 693 1280.5 c 128,-1,15
 666 1320 666 1320 619 1320 c 0,16,17
 572 1320 572 1320 502 1270 c 0,18,19
 369 1174 369 1174 279 1173.5 c 128,-1,0
 189 1173 189 1173 126.5 1251.5 c 128,-1,1
EndSplineSet
EndChar

StartChar: cent
Encoding: 162 162 100
Width: 1110
GlyphClass: 2
Flags: W
LayerCount: 2
Fore
SplineSet
643 -20 m 1,0,-1
 643 -205 l 1,1,-1
 540 -205 l 1,2,-1
 540 -21 l 1,3,4
 250 -8 250 -8 172 204 c 0,5,6
 148 268 148 268 148 344 c 2,7,-1
 148 748 l 2,8,9
 148 899 148 899 258 985.5 c 128,-1,10
 368 1072 368 1072 540 1079 c 1,11,-1
 540 1277 l 1,12,-1
 643 1277 l 1,13,-1
 643 1078 l 1,14,15
 837 1066 837 1066 914 977 c 0,16,17
 992 888 992 888 992 724 c 1,18,-1
 813 707 l 1,19,20
 813 849 813 849 763 893 c 0,21,22
 713 936 713 936 583.5 936 c 128,-1,23
 454 936 454 936 395 891 c 128,-1,24
 336 846 336 846 336 743 c 2,25,-1
 336 328 l 2,26,27
 336 218 336 218 398 170 c 128,-1,28
 460 122 460 122 589.5 122 c 128,-1,29
 719 122 719 122 762.5 156 c 128,-1,30
 806 190 806 190 816 310 c 1,31,-1
 990 310 l 1,32,33
 974 126 974 126 891 58 c 128,-1,34
 808 -10 808 -10 643 -20 c 1,0,-1
EndSplineSet
EndChar

StartChar: sterling
Encoding: 163 163 101
Width: 1273
GlyphClass: 2
Flags: W
LayerCount: 2
Fore
SplineSet
261 0 m 1,0,-1
 323 668 l 1,1,-1
 166 668 l 1,2,-1
 166 809 l 1,3,-1
 336 809 l 1,4,-1
 367 1125 l 1,5,6
 381 1279 381 1279 480.5 1381.5 c 128,-1,7
 580 1484 580 1484 740 1484 c 0,8,9
 900 1484 900 1484 1077 1398 c 1,10,-1
 1023 1259 l 1,11,12
 883 1327 883 1327 770 1327 c 0,13,14
 582 1327 582 1327 559 1104 c 2,15,-1
 529 809 l 1,16,-1
 1012 809 l 1,17,-1
 1012 668 l 1,18,-1
 514 668 l 1,19,-1
 462 162 l 1,20,-1
 1036 162 l 1,21,-1
 1036 0 l 1,22,-1
 261 0 l 1,0,-1
EndSplineSet
EndChar

StartChar: currency
Encoding: 164 164 102
Width: 1149
GlyphClass: 2
Flags: W
LayerCount: 2
Fore
SplineSet
565 444 m 128,-1,1
 661 444 661 444 725.5 516 c 128,-1,2
 790 588 790 588 790 690.5 c 128,-1,3
 790 793 790 793 725.5 864.5 c 128,-1,4
 661 936 661 936 565 936 c 128,-1,5
 469 936 469 936 404.5 864.5 c 128,-1,6
 340 793 340 793 340 690.5 c 128,-1,7
 340 588 340 588 404.5 516 c 128,-1,0
 469 444 469 444 565 444 c 128,-1,1
817 486 m 1,8,9
 727 360 727 360 572 360 c 129,-1,10
 417 360 417 360 324 468 c 1,11,-1
 177 360 l 1,12,-1
 126 443 l 1,13,-1
 274 549 l 1,14,15
 245 615 245 615 245 699.5 c 128,-1,16
 245 784 245 784 291 862 c 1,17,-1
 116 979 l 1,18,-1
 170 1061 l 1,19,-1
 350 937 l 1,20,21
 436 1018 436 1018 565 1018 c 128,-1,22
 694 1018 694 1018 780 935 c 1,23,-1
 973 1075 l 1,24,-1
 1023 993 l 1,25,-1
 839 860 l 1,26,27
 883 777 883 777 883 701.5 c 128,-1,28
 883 626 883 626 862 571 c 1,29,-1
 1033 457 l 1,30,-1
 981 376 l 1,31,-1
 817 486 l 1,8,9
EndSplineSet
EndChar

StartChar: yen
Encoding: 165 165 103
Width: 1318
GlyphClass: 2
Flags: W
LayerCount: 2
Fore
SplineSet
260 560 m 1,0,-1
 260 708 l 1,1,-1
 478 708 l 1,2,-1
 48 1446 l 1,3,-1
 261 1446 l 1,4,-1
 661 744 l 1,5,-1
 1063 1446 l 1,6,-1
 1270 1446 l 1,7,-1
 842 708 l 1,8,-1
 1063 708 l 1,9,-1
 1063 560 l 1,10,-1
 761 560 l 1,11,-1
 761 400 l 1,12,-1
 1063 400 l 1,13,-1
 1063 252 l 1,14,-1
 761 252 l 1,15,-1
 761 0 l 1,16,-1
 560 0 l 1,17,-1
 560 252 l 1,18,-1
 260 252 l 1,19,-1
 260 400 l 1,20,-1
 560 400 l 1,21,-1
 560 560 l 1,22,-1
 260 560 l 1,0,-1
EndSplineSet
EndChar

StartChar: brokenbar
Encoding: 166 166 104
Width: 674
GlyphClass: 2
Flags: W
LayerCount: 2
Fore
SplineSet
254 848 m 1,0,-1
 254 1555 l 1,1,-1
 432 1555 l 1,2,-1
 432 848 l 1,3,-1
 254 848 l 1,0,-1
254 -167 m 1,4,-1
 254 513 l 1,5,-1
 432 513 l 1,6,-1
 432 -167 l 1,7,-1
 254 -167 l 1,4,-1
EndSplineSet
EndChar

StartChar: section
Encoding: 167 167 105
Width: 1002
GlyphClass: 2
Flags: W
LayerCount: 2
Fore
SplineSet
365 924 m 1,0,1
 357 924 357 924 344.5 881 c 128,-1,2
 332 838 332 838 332 797.5 c 128,-1,3
 332 757 332 757 351.5 730.5 c 128,-1,4
 371 704 371 704 425 683 c 2,5,-1
 716 571 l 1,6,7
 736 615 736 615 736 676 c 128,-1,8
 736 737 736 737 716 771 c 128,-1,9
 696 805 696 805 624 831 c 2,10,-1
 365 924 l 1,0,1
223 997 m 1,11,12
 151 1058 151 1058 151 1178 c 0,13,14
 151 1396 151 1396 337 1448 c 0,15,16
 407 1468 407 1468 506 1468 c 0,17,18
 722 1468 722 1468 874 1410 c 1,19,-1
 829 1266 l 1,20,21
 776 1287 776 1287 690.5 1305.5 c 128,-1,22
 605 1324 605 1324 554.5 1324 c 128,-1,23
 504 1324 504 1324 474 1322 c 0,24,25
 364 1313 364 1313 342 1256 c 0,26,27
 332 1229 332 1229 332 1183 c 128,-1,28
 332 1137 332 1137 351 1114.5 c 128,-1,29
 370 1092 370 1092 425 1071 c 2,30,-1
 682 973 l 2,31,32
 816 922 816 922 858 860.5 c 128,-1,33
 900 799 900 799 900 681 c 128,-1,34
 900 563 900 563 846 487 c 1,35,36
 900 428 900 428 900 287.5 c 128,-1,37
 900 147 900 147 812.5 62.5 c 128,-1,38
 725 -22 725 -22 542 -22 c 0,39,40
 408 -22 408 -22 304 6 c 128,-1,41
 200 34 200 34 144 64 c 1,42,-1
 191 202 l 1,43,44
 340 122 340 122 516 122 c 0,45,46
 736 122 736 122 736 281 c 0,47,48
 736 349 736 349 716 383 c 128,-1,49
 696 417 696 417 624 443 c 2,50,-1
 365 536 l 2,51,52
 226 586 226 586 183 657 c 0,53,54
 151 709 151 709 151 792 c 0,55,56
 151 928 151 928 223 997 c 1,11,12
EndSplineSet
EndChar

StartChar: dieresis
Encoding: 168 168 106
Width: 1025
GlyphClass: 2
Flags: W
LayerCount: 2
Fore
SplineSet
661 1265 m 1,0,-1
 661 1446 l 1,1,-1
 867 1446 l 1,2,-1
 867 1265 l 1,3,-1
 661 1265 l 1,0,-1
158 1265 m 1,4,-1
 158 1446 l 1,5,-1
 364 1446 l 1,6,-1
 364 1265 l 1,7,-1
 158 1265 l 1,4,-1
EndSplineSet
EndChar

StartChar: copyright
Encoding: 169 169 107
Width: 1784
GlyphClass: 2
Flags: W
LayerCount: 2
Fore
SplineSet
1182.5 42.5 m 128,-1,1
 1046 -14 1046 -14 867 -14 c 128,-1,2
 688 -14 688 -14 519.5 82 c 128,-1,3
 351 178 351 178 253.5 347 c 128,-1,4
 156 516 156 516 156 721.5 c 128,-1,5
 156 927 156 927 253.5 1095.5 c 128,-1,6
 351 1264 351 1264 519.5 1360 c 128,-1,7
 688 1456 688 1456 892.5 1456 c 128,-1,8
 1097 1456 1097 1456 1266 1360 c 128,-1,9
 1435 1264 1435 1264 1531.5 1095.5 c 128,-1,10
 1628 927 1628 927 1628 747 c 128,-1,11
 1628 567 1628 567 1571 430.5 c 128,-1,12
 1514 294 1514 294 1416.5 196.5 c 128,-1,0
 1319 99 1319 99 1182.5 42.5 c 128,-1,1
570.5 165.5 m 128,-1,14
 715 82 715 82 894.5 82 c 128,-1,15
 1074 82 1074 82 1218 165.5 c 128,-1,16
 1362 249 1362 249 1442 395 c 128,-1,17
 1522 541 1522 541 1522 721.5 c 128,-1,18
 1522 902 1522 902 1442 1048 c 128,-1,19
 1362 1194 1362 1194 1218 1277.5 c 128,-1,20
 1074 1361 1074 1361 894.5 1361 c 128,-1,21
 715 1361 715 1361 570.5 1277.5 c 128,-1,22
 426 1194 426 1194 345.5 1048 c 128,-1,23
 265 902 265 902 265 722 c 128,-1,24
 265 542 265 542 345.5 395.5 c 128,-1,13
 426 249 426 249 570.5 165.5 c 128,-1,14
622.5 368 m 128,-1,26
 551 449 551 449 551 590 c 2,27,-1
 551 868 l 2,28,29
 551 1104 551 1104 726 1160 c 0,30,31
 798 1182 798 1182 900 1182 c 0,32,33
 1103 1182 1103 1182 1165.5 1094.5 c 128,-1,34
 1228 1007 1228 1007 1228 861 c 2,35,-1
 1228 836 l 1,36,-1
 1112 826 l 1,37,-1
 1112 890 l 2,38,39
 1112 1003 1112 1003 1064.5 1047 c 128,-1,40
 1017 1091 1017 1091 900.5 1091 c 128,-1,41
 784 1091 784 1091 727.5 1045.5 c 128,-1,42
 671 1000 671 1000 671 890 c 2,43,-1
 671 571 l 2,44,45
 671 462 671 462 727 419 c 128,-1,46
 783 376 783 376 901.5 376 c 128,-1,47
 1020 376 1020 376 1066 417.5 c 128,-1,48
 1112 459 1112 459 1112 571 c 2,49,-1
 1112 632 l 1,50,-1
 1228 632 l 1,51,-1
 1228 598 l 2,52,53
 1228 481 1228 481 1200 426.5 c 128,-1,54
 1172 372 1172 372 1137 346 c 0,55,56
 1060 288 1060 288 877 287.5 c 128,-1,25
 694 287 694 287 622.5 368 c 128,-1,26
EndSplineSet
EndChar

StartChar: guillemotleft
Encoding: 171 171 109
Width: 1054
GlyphClass: 2
Flags: W
LayerCount: 2
Fore
SplineSet
790 80 m 1,0,-1
 510 530 l 1,1,-1
 783 980 l 1,2,-1
 928 910 l 1,3,-1
 723 530 l 1,4,-1
 928 150 l 1,5,-1
 790 80 l 1,0,-1
376 80 m 1,6,-1
 96 530 l 1,7,-1
 369 980 l 1,8,-1
 516 910 l 1,9,-1
 309 530 l 1,10,-1
 516 150 l 1,11,-1
 376 80 l 1,6,-1
EndSplineSet
EndChar

StartChar: logicalnot
Encoding: 172 172 110
Width: 864
GlyphClass: 2
Flags: W
LayerCount: 2
Fore
SplineSet
589 333 m 1,0,-1
 589 556 l 1,1,-1
 98 556 l 1,2,-1
 98 692 l 1,3,-1
 721 692 l 1,4,-1
 721 333 l 1,5,-1
 589 333 l 1,0,-1
EndSplineSet
EndChar

StartChar: uni00AD
Encoding: 173 173 111
Width: 1024
GlyphClass: 2
Flags: W
LayerCount: 2
Fore
SplineSet
162 494 m 1,0,-1
 162 642 l 1,1,-1
 862 642 l 1,2,-1
 862 494 l 1,3,-1
 162 494 l 1,0,-1
EndSplineSet
EndChar

StartChar: registered
Encoding: 174 174 112
Width: 1784
GlyphClass: 2
Flags: W
LayerCount: 2
Fore
SplineSet
1182.5 42.5 m 128,-1,1
 1046 -14 1046 -14 867 -14 c 128,-1,2
 688 -14 688 -14 519.5 82 c 128,-1,3
 351 178 351 178 253.5 347 c 128,-1,4
 156 516 156 516 156 721.5 c 128,-1,5
 156 927 156 927 253.5 1095.5 c 128,-1,6
 351 1264 351 1264 519.5 1360 c 128,-1,7
 688 1456 688 1456 892.5 1456 c 128,-1,8
 1097 1456 1097 1456 1266 1360 c 128,-1,9
 1435 1264 1435 1264 1531.5 1095.5 c 128,-1,10
 1628 927 1628 927 1628 747 c 128,-1,11
 1628 567 1628 567 1571 430.5 c 128,-1,12
 1514 294 1514 294 1416.5 196.5 c 128,-1,0
 1319 99 1319 99 1182.5 42.5 c 128,-1,1
570.5 165.5 m 128,-1,14
 715 82 715 82 894.5 82 c 128,-1,15
 1074 82 1074 82 1218 165.5 c 128,-1,16
 1362 249 1362 249 1442 395 c 128,-1,17
 1522 541 1522 541 1522 721.5 c 128,-1,18
 1522 902 1522 902 1442 1048 c 128,-1,19
 1362 1194 1362 1194 1218 1277.5 c 128,-1,20
 1074 1361 1074 1361 894.5 1361 c 128,-1,21
 715 1361 715 1361 570.5 1277.5 c 128,-1,22
 426 1194 426 1194 345.5 1048 c 128,-1,23
 265 902 265 902 265 722 c 128,-1,24
 265 542 265 542 345.5 395.5 c 128,-1,13
 426 249 426 249 570.5 165.5 c 128,-1,14
727 742 m 1,25,-1
 994 742 l 2,26,27
 1128 742 1128 742 1130 877 c 1,28,-1
 1130 901 l 2,29,30
 1130 1062 1130 1062 1003 1062 c 2,31,-1
 727 1062 l 1,32,-1
 727 742 l 1,25,-1
596 319 m 1,33,-1
 596 1153 l 1,34,-1
 999 1153 l 2,35,36
 1256 1153 1256 1153 1262 908 c 1,37,-1
 1262 894 l 2,38,39
 1262 707 1262 707 1110 666 c 1,40,-1
 1294 319 l 1,41,-1
 1166 319 l 1,42,-1
 986 652 l 1,43,-1
 727 652 l 1,44,-1
 727 319 l 1,45,-1
 596 319 l 1,33,-1
EndSplineSet
EndChar

StartChar: macron
Encoding: 175 175 113
Width: 513
GlyphClass: 2
Flags: W
LayerCount: 2
Fore
SplineSet
32 1359 m 1,0,-1
 32 1506 l 1,1,-1
 481 1506 l 1,2,-1
 481 1359 l 1,3,-1
 32 1359 l 1,0,-1
EndSplineSet
EndChar

StartChar: degree
Encoding: 176 176 114
Width: 1036
GlyphClass: 2
Flags: W
LayerCount: 2
Fore
SplineSet
518 798 m 128,-1,1
 384 798 384 798 289 893 c 128,-1,2
 194 988 194 988 194 1122 c 128,-1,3
 194 1256 194 1256 289 1351 c 128,-1,4
 384 1446 384 1446 518 1446 c 128,-1,5
 652 1446 652 1446 747 1351 c 128,-1,6
 842 1256 842 1256 842 1122 c 128,-1,7
 842 988 842 988 747 893 c 128,-1,0
 652 798 652 798 518 798 c 128,-1,1
519 885 m 128,-1,9
 616 885 616 885 681.5 954.5 c 128,-1,10
 747 1024 747 1024 747 1123 c 128,-1,11
 747 1222 747 1222 681.5 1291.5 c 128,-1,12
 616 1361 616 1361 519 1361 c 128,-1,13
 422 1361 422 1361 356.5 1291.5 c 128,-1,14
 291 1222 291 1222 291 1123 c 128,-1,15
 291 1024 291 1024 356.5 954.5 c 128,-1,8
 422 885 422 885 519 885 c 128,-1,9
EndSplineSet
EndChar

StartChar: plusminus
Encoding: 177 177 115
Width: 1041
GlyphClass: 2
Flags: W
LayerCount: 2
Fore
SplineSet
207 0 m 1,0,-1
 207 120 l 1,1,-1
 834 120 l 1,2,-1
 834 0 l 1,3,-1
 207 0 l 1,0,-1
460 334 m 1,4,-1
 460 611 l 1,5,-1
 207 611 l 1,6,-1
 207 726 l 1,7,-1
 460 726 l 1,8,-1
 460 992 l 1,9,-1
 581 992 l 1,10,-1
 581 726 l 1,11,-1
 834 726 l 1,12,-1
 834 611 l 1,13,-1
 581 611 l 1,14,-1
 581 334 l 1,15,-1
 460 334 l 1,4,-1
EndSplineSet
EndChar

StartChar: uni00B2
Encoding: 178 178 116
Width: 1052
GlyphClass: 2
Flags: W
LayerCount: 2
Fore
SplineSet
672.5 1070.5 m 128,-1,1
 699 1120 699 1120 699 1184 c 128,-1,2
 699 1248 699 1248 680 1292 c 0,3,4
 640 1386 640 1386 531 1386.5 c 128,-1,5
 422 1387 422 1387 366.5 1338.5 c 128,-1,6
 311 1290 311 1290 311 1174 c 1,7,-1
 190 1174 l 1,8,9
 190 1331 190 1331 281.5 1407.5 c 128,-1,10
 373 1484 373 1484 513 1484 c 128,-1,11
 653 1484 653 1484 736.5 1403 c 128,-1,12
 820 1322 820 1322 820 1205.5 c 128,-1,13
 820 1089 820 1089 785 1017.5 c 128,-1,14
 750 946 750 946 670 865 c 1,15,-1
 350 549 l 1,16,-1
 815 549 l 1,17,-1
 815 449 l 1,18,-1
 230 449 l 1,19,-1
 219 559 l 1,20,-1
 578 948 l 2,21,0
 646 1021 646 1021 672.5 1070.5 c 128,-1,1
EndSplineSet
EndChar

StartChar: uni00B3
Encoding: 179 179 117
Width: 1173
GlyphClass: 2
Flags: W
LayerCount: 2
Fore
SplineSet
590 418 m 0,0,1
 304 418 304 418 232 592 c 0,2,3
 204 660 204 660 200 761 c 1,4,-1
 338 761 l 1,5,6
 342 572 342 572 470 538 c 0,7,8
 520 524 520 524 606.5 524.5 c 128,-1,9
 693 525 693 525 753 572.5 c 128,-1,10
 813 620 813 620 813 705 c 0,11,12
 814 790 814 790 788 834 c 0,13,14
 737 921 737 921 499 921 c 1,15,-1
 499 1020 l 1,16,17
 678 1020 678 1020 727 1055 c 0,18,19
 777 1090 777 1090 785 1121 c 0,20,21
 794 1153 794 1153 794 1217.5 c 128,-1,22
 794 1282 794 1282 745 1330 c 128,-1,23
 696 1378 696 1378 590 1378 c 0,24,25
 404 1378 404 1378 365 1268 c 0,26,27
 349 1222 349 1222 349 1153 c 1,28,-1
 213 1153 l 1,29,30
 217 1436 217 1436 474 1476 c 0,31,32
 526 1484 526 1484 604 1484 c 128,-1,33
 682 1484 682 1484 756.5 1454.5 c 128,-1,34
 831 1425 831 1425 879 1360.5 c 128,-1,35
 927 1296 927 1296 927 1200 c 0,36,37
 927 1008 927 1008 735 972 c 1,38,39
 898 942 898 942 934 828 c 0,40,41
 948 782 948 782 948 719 c 0,42,43
 948 569 948 569 848.5 493.5 c 128,-1,44
 749 418 749 418 590 418 c 0,0,1
EndSplineSet
EndChar

StartChar: acute
Encoding: 180 180 118
Width: 616
GlyphClass: 2
Flags: W
LayerCount: 2
Fore
SplineSet
133 1165 m 1,0,-1
 253 1506 l 1,1,-1
 478 1506 l 1,2,-1
 239 1165 l 1,3,-1
 133 1165 l 1,0,-1
EndSplineSet
EndChar

StartChar: paragraph
Encoding: 182 182 119
Width: 1250
GlyphClass: 2
Flags: W
LayerCount: 2
Fore
SplineSet
485 0 m 1,0,-1
 485 870 l 1,1,2
 350 873 350 873 259 949.5 c 128,-1,3
 168 1026 168 1026 168 1156 c 0,4,5
 168 1376 168 1376 384 1430 c 0,6,7
 446 1446 446 1446 521 1446 c 2,8,-1
 961 1446 l 1,9,-1
 961 0 l 1,10,-1
 825 0 l 1,11,-1
 825 1338 l 1,12,-1
 621 1338 l 1,13,-1
 621 0 l 1,14,-1
 485 0 l 1,0,-1
EndSplineSet
EndChar

StartChar: cedilla
Encoding: 184 184 120
Width: 512
GlyphClass: 2
Flags: W
LayerCount: 2
Fore
SplineSet
213 -486 m 0,0,1
 165 -486 165 -486 120 -478 c 1,2,-1
 120 -382 l 1,3,4
 156 -389 156 -389 208 -389 c 0,5,6
 260 -389 260 -389 295.5 -360.5 c 128,-1,7
 331 -332 331 -332 331 -286 c 0,8,9
 331 -240 331 -240 286.5 -200 c 128,-1,10
 242 -160 242 -160 171 -158 c 1,11,-1
 171 0 l 1,12,-1
 233 0 l 1,13,-1
 239 -94 l 1,14,15
 344 -113 344 -113 402 -172.5 c 128,-1,16
 460 -232 460 -232 460 -306 c 0,17,18
 460 -380 460 -380 395 -433 c 128,-1,19
 330 -486 330 -486 213 -486 c 0,0,1
EndSplineSet
EndChar

StartChar: uni00B9
Encoding: 185 185 121
Width: 1050
GlyphClass: 2
Flags: W
LayerCount: 2
Fore
SplineSet
207 654 m 1,0,-1
 207 755 l 1,1,-1
 481 755 l 1,2,-1
 481 1394 l 1,3,-1
 225 1368 l 1,4,-1
 213 1472 l 1,5,-1
 505 1505 l 1,6,-1
 612 1505 l 1,7,-1
 612 755 l 1,8,-1
 843 755 l 1,9,-1
 843 654 l 1,10,-1
 207 654 l 1,0,-1
EndSplineSet
EndChar

StartChar: guillemotright
Encoding: 187 187 123
Width: 1054
GlyphClass: 2
Flags: W
LayerCount: 2
Fore
SplineSet
685 80 m 1,0,-1
 538 150 l 1,1,-1
 745 530 l 1,2,-1
 538 910 l 1,3,-1
 678 980 l 1,4,-1
 958 530 l 1,5,-1
 685 80 l 1,0,-1
271 80 m 1,6,-1
 126 150 l 1,7,-1
 331 530 l 1,8,-1
 126 910 l 1,9,-1
 264 980 l 1,10,-1
 544 530 l 1,11,-1
 271 80 l 1,6,-1
EndSplineSet
EndChar

StartChar: onequarter
Encoding: 188 188 124
Width: 2047
GlyphClass: 2
Flags: W
LayerCount: 2
Fore
SplineSet
1655 0 m 1,0,-1
 1655 207 l 1,1,-1
 1221 207 l 1,2,-1
 1221 299 l 1,3,-1
 1580 892 l 1,4,-1
 1721 892 l 1,5,-1
 1373 298 l 1,6,-1
 1655 298 l 1,7,-1
 1655 533 l 1,8,-1
 1768 533 l 1,9,-1
 1768 298 l 1,10,-1
 1912 298 l 1,11,-1
 1912 207 l 1,12,-1
 1768 207 l 1,13,-1
 1768 0 l 1,14,-1
 1655 0 l 1,0,-1
687 0 m 1,15,-1
 1371 1446 l 1,16,-1
 1497 1446 l 1,17,-1
 819 0 l 1,18,-1
 687 0 l 1,15,-1
164 654 m 1,19,-1
 164 755 l 1,20,-1
 438 755 l 1,21,-1
 438 1394 l 1,22,-1
 182 1368 l 1,23,-1
 170 1472 l 1,24,-1
 462 1505 l 1,25,-1
 569 1505 l 1,26,-1
 569 755 l 1,27,-1
 800 755 l 1,28,-1
 800 654 l 1,29,-1
 164 654 l 1,19,-1
EndSplineSet
EndChar

StartChar: onehalf
Encoding: 189 189 125
Width: 2047
GlyphClass: 2
Flags: W
LayerCount: 2
Fore
SplineSet
687 0 m 1,0,-1
 1371 1446 l 1,1,-1
 1497 1446 l 1,2,-1
 819 0 l 1,3,-1
 687 0 l 1,0,-1
164 654 m 1,4,-1
 164 755 l 1,5,-1
 438 755 l 1,6,-1
 438 1394 l 1,7,-1
 182 1368 l 1,8,-1
 170 1472 l 1,9,-1
 462 1505 l 1,10,-1
 569 1505 l 1,11,-1
 569 755 l 1,12,-1
 800 755 l 1,13,-1
 800 654 l 1,14,-1
 164 654 l 1,4,-1
1371 2 m 1,15,-1
 1360 94 l 1,16,-1
 1643 413 l 1,17,18
 1746 524 1746 524 1756 570 c 0,19,20
 1762 594 1762 594 1762 633 c 128,-1,21
 1762 672 1762 672 1747 703 c 0,22,23
 1717 765 1717 765 1618.5 765 c 128,-1,24
 1520 765 1520 765 1484.5 734 c 128,-1,25
 1449 703 1449 703 1449 605 c 1,26,-1
 1332 605 l 1,27,28
 1332 738 1332 738 1407 802.5 c 128,-1,29
 1482 867 1482 867 1613 867 c 128,-1,30
 1744 867 1744 867 1811.5 799 c 128,-1,31
 1879 731 1879 731 1879 625 c 0,32,33
 1879 564 1879 564 1865 533 c 128,-1,34
 1851 502 1851 502 1845.5 488 c 128,-1,35
 1840 474 1840 474 1819 448 c 128,-1,36
 1798 422 1798 422 1792.5 414.5 c 128,-1,37
 1787 407 1787 407 1758.5 376 c 128,-1,38
 1730 345 1730 345 1725 339 c 2,39,-1
 1512 101 l 1,40,-1
 1883 101 l 1,41,-1
 1883 2 l 1,42,-1
 1371 2 l 1,15,-1
EndSplineSet
EndChar

StartChar: threequarters
Encoding: 190 190 126
Width: 2047
GlyphClass: 2
Flags: W
LayerCount: 2
Fore
SplineSet
695 1295 m 0,0,1
 695 1421 695 1421 533 1421 c 0,2,3
 405 1421 405 1421 376 1380.5 c 128,-1,4
 347 1340 347 1340 347 1253 c 1,5,-1
 212 1253 l 1,6,7
 215 1438 215 1438 343 1488 c 0,8,9
 413 1516 413 1516 541 1515.5 c 128,-1,10
 669 1515 669 1515 748 1461 c 128,-1,11
 827 1407 827 1407 827 1310 c 128,-1,12
 827 1213 827 1213 789 1167.5 c 128,-1,13
 751 1122 751 1122 664 1110 c 1,14,15
 756 1094 756 1094 801.5 1045.5 c 128,-1,16
 847 997 847 997 847 886.5 c 128,-1,17
 847 776 847 776 768.5 714.5 c 128,-1,18
 690 653 690 653 528.5 653 c 128,-1,19
 367 653 367 653 289.5 714 c 128,-1,20
 212 775 212 775 199 932 c 1,21,-1
 334 932 l 1,22,23
 340 819 340 819 387.5 782.5 c 128,-1,24
 435 746 435 746 535.5 746 c 128,-1,25
 636 746 636 746 674.5 783.5 c 128,-1,26
 713 821 713 821 713 893 c 0,27,28
 714 965 714 965 696 999 c 0,29,30
 662 1066 662 1066 469 1066 c 1,31,-1
 469 1151 l 1,32,33
 581 1151 581 1151 614.5 1164 c 128,-1,34
 648 1177 648 1177 663 1187 c 0,35,36
 695 1208 695 1208 695 1295 c 0,0,1
687 0 m 1,37,-1
 1371 1446 l 1,38,-1
 1497 1446 l 1,39,-1
 819 0 l 1,40,-1
 687 0 l 1,37,-1
1655 0 m 1,41,-1
 1655 207 l 1,42,-1
 1221 207 l 1,43,-1
 1221 299 l 1,44,-1
 1580 892 l 1,45,-1
 1721 892 l 1,46,-1
 1373 298 l 1,47,-1
 1655 298 l 1,48,-1
 1655 533 l 1,49,-1
 1768 533 l 1,50,-1
 1768 298 l 1,51,-1
 1912 298 l 1,52,-1
 1912 207 l 1,53,-1
 1768 207 l 1,54,-1
 1768 0 l 1,55,-1
 1655 0 l 1,41,-1
EndSplineSet
EndChar

StartChar: AE
Encoding: 198 198 134
Width: 1686
GlyphClass: 2
Flags: W
LayerCount: 2
Fore
SplineSet
411 417 m 1,0,-1
 874 417 l 1,1,-1
 874 1296 l 1,2,-1
 632 1296 l 1,3,-1
 411 417 l 1,0,-1
302 0 m 1,4,-1
 98 3 l 1,5,-1
 492 1449 l 1,6,-1
 1550 1446 l 1,7,-1
 1550 1296 l 1,8,-1
 1065 1296 l 1,9,-1
 1065 814 l 1,10,-1
 1489 814 l 1,11,-1
 1489 664 l 1,12,-1
 1065 664 l 1,13,-1
 1065 150 l 1,14,-1
 1559 150 l 1,15,-1
 1559 0 l 1,16,-1
 874 0 l 1,17,-1
 874 282 l 1,18,-1
 375 282 l 1,19,-1
 302 0 l 1,4,-1
EndSplineSet
EndChar

StartChar: Eth
Encoding: 208 208 144
Width: 1215
GlyphClass: 2
Flags: W
LayerCount: 2
Fore
SplineSet
420 150 m 1,0,-1
 774 150 l 2,1,2
 992 150 992 150 1065 231 c 0,3,4
 1139 312 1139 312 1139 462 c 2,5,-1
 1139 971 l 2,6,7
 1139 1192 1139 1192 991 1258 c 0,8,9
 907 1296 907 1296 774 1295 c 2,10,-1
 420 1295 l 1,11,-1
 420 849 l 1,12,-1
 778 849 l 1,13,-1
 778 698 l 1,14,-1
 420 698 l 1,15,-1
 420 150 l 1,0,-1
76 698 m 1,16,-1
 76 849 l 1,17,-1
 218 849 l 1,18,-1
 218 1446 l 1,19,-1
 792 1446 l 2,20,21
 1207 1446 1207 1446 1310 1152 c 0,22,23
 1340 1066 1340 1066 1340 959 c 2,24,-1
 1340 482 l 2,25,26
 1340 245 1340 245 1203.5 122.5 c 128,-1,27
 1067 0 1067 0 794 0 c 2,28,-1
 218 0 l 1,29,-1
 218 698 l 1,30,-1
 76 698 l 1,16,-1
EndSplineSet
EndChar

StartChar: multiply
Encoding: 215 215 151
Width: 973
GlyphClass: 2
Flags: W
LayerCount: 2
Fore
SplineSet
239 216 m 1,0,-1
 129 344 l 1,1,-1
 366 576 l 1,2,-1
 129 806 l 1,3,-1
 239 937 l 1,4,-1
 487 694 l 1,5,-1
 735 937 l 1,6,-1
 844 806 l 1,7,-1
 608 576 l 1,8,-1
 844 344 l 1,9,-1
 735 216 l 1,10,-1
 487 458 l 1,11,-1
 239 216 l 1,0,-1
EndSplineSet
EndChar

StartChar: Oslash
Encoding: 216 216 152
Width: 1546
GlyphClass: 2
Flags: W
LayerCount: 2
Fore
SplineSet
784 -22 m 0,0,1
 650 -22 650 -22 551 -2 c 1,2,-1
 479 -195 l 1,3,-1
 376 -157 l 1,4,-1
 445 29 l 1,5,6
 288 92 288 92 233 221 c 0,7,8
 186 332 186 332 186 486 c 2,9,-1
 186 941 l 2,10,11
 186 1252 186 1252 362 1372 c 0,12,13
 504 1468 504 1468 782 1468 c 0,14,15
 887 1468 887 1468 971 1452 c 1,16,-1
 1054 1676 l 1,17,-1
 1158 1638 l 1,18,-1
 1078 1423 l 1,19,20
 1298 1343 1298 1343 1345 1102 c 0,21,22
 1360 1025 1360 1025 1360 928 c 2,23,-1
 1360 500 l 2,24,25
 1360 198 1360 198 1187 76 c 0,26,27
 1047 -22 1047 -22 784 -22 c 0,0,1
608 154 m 1,28,29
 677 140 677 140 781 140 c 0,30,31
 979 140 979 140 1069 203.5 c 128,-1,32
 1159 267 1159 267 1159 455 c 2,33,-1
 1159 978 l 2,34,35
 1160 1166 1160 1166 1066 1238 c 0,36,37
 1045 1254 1045 1254 1020 1267 c 1,38,-1
 608 154 l 1,28,29
914 1298 m 1,39,40
 857 1306 857 1306 770 1306 c 0,41,42
 588 1306 588 1306 488 1236.5 c 128,-1,43
 388 1167 388 1167 388 978 c 2,44,-1
 388 455 l 2,45,46
 388 259 388 259 505 192 c 1,47,-1
 914 1298 l 1,39,40
EndSplineSet
EndChar

StartChar: Thorn
Encoding: 222 222 158
Width: 1320
GlyphClass: 2
Flags: W
LayerCount: 2
Fore
SplineSet
414 484 m 1,0,-1
 791 484 l 2,1,2
 917 484 917 484 953.5 560.5 c 128,-1,3
 990 637 990 637 990 723 c 128,-1,4
 990 809 990 809 987 845 c 0,5,6
 979 944 979 944 936 999.5 c 128,-1,7
 893 1055 893 1055 794 1055 c 2,8,-1
 414 1055 l 1,9,-1
 414 484 l 1,0,-1
212 0 m 1,10,-1
 212 1446 l 1,11,-1
 414 1446 l 1,12,-1
 414 1208 l 1,13,-1
 788 1208 l 2,14,15
 1088 1208 1088 1208 1164 980 c 0,16,17
 1192 894 1192 894 1192 770 c 0,18,19
 1192 521 1192 521 1085.5 426 c 128,-1,20
 979 331 979 331 787 331 c 2,21,-1
 414 331 l 1,22,-1
 414 0 l 1,23,-1
 212 0 l 1,10,-1
EndSplineSet
EndChar

StartChar: germandbls
Encoding: 223 223 159
Width: 1281
GlyphClass: 2
Flags: W
LayerCount: 2
Fore
SplineSet
190 0 m 1,0,-1
 190 1103 l 2,1,2
 190 1350 190 1350 379 1435 c 0,3,4
 486 1483 486 1483 671.5 1483 c 128,-1,5
 857 1483 857 1483 957 1391.5 c 128,-1,6
 1057 1300 1057 1300 1057 1135 c 0,7,8
 1057 1019 1057 1019 1020.5 960 c 128,-1,9
 984 901 984 901 902 878 c 1,10,11
 995 839 995 839 1025 820 c 0,12,13
 1166 730 1166 730 1166 473 c 128,-1,14
 1166 216 1166 216 1007 108 c 128,-1,15
 848 0 848 0 536 0 c 1,16,-1
 518 148 l 1,17,18
 711 162 711 162 785 183 c 0,19,20
 991 242 991 242 991 471 c 0,21,22
 991 614 991 614 940 676 c 0,23,24
 889 738 889 738 805.5 754 c 128,-1,25
 722 770 722 770 600 770 c 1,26,-1
 600 912 l 1,27,28
 759 912 759 912 814 964.5 c 128,-1,29
 869 1017 869 1017 869 1100 c 0,30,31
 869 1248 869 1248 810.5 1290 c 128,-1,32
 752 1332 752 1332 667 1332 c 128,-1,33
 582 1332 582 1332 539 1324.5 c 128,-1,34
 496 1317 496 1317 457 1297 c 0,35,36
 378 1256 378 1256 378 1131 c 2,37,-1
 378 0 l 1,38,-1
 190 0 l 1,0,-1
EndSplineSet
EndChar

StartChar: ae
Encoding: 230 230 166
Width: 1741
GlyphClass: 2
Flags: W
LayerCount: 2
Fore
SplineSet
973 633 m 1,0,-1
 1437 633 l 1,1,-1
 1437 778 l 2,2,3
 1437 868 1437 868 1376 903 c 128,-1,4
 1315 938 1315 938 1198 938 c 128,-1,5
 1081 938 1081 938 1027 897 c 128,-1,6
 973 856 973 856 973 760 c 2,7,-1
 973 633 l 1,0,-1
362 155.5 m 128,-1,9
 412 113 412 113 484 113 c 128,-1,10
 556 113 556 113 615.5 132 c 128,-1,11
 675 151 675 151 723 188.5 c 128,-1,12
 771 226 771 226 785 273 c 1,13,-1
 785 547 l 1,14,15
 730 514 730 514 619 495.5 c 128,-1,16
 508 477 508 477 442.5 454.5 c 128,-1,17
 377 432 377 432 344.5 387.5 c 128,-1,18
 312 343 312 343 312 270.5 c 128,-1,8
 312 198 312 198 362 155.5 c 128,-1,9
469 -20 m 0,19,20
 308 -20 308 -20 219.5 66.5 c 128,-1,21
 131 153 131 153 131 296.5 c 128,-1,22
 131 440 131 440 228.5 508 c 128,-1,23
 326 576 326 576 505.5 604.5 c 0,24,25
 685 632 685 632 725 644 c 0,26,27
 785 661 785 661 785 759 c 128,-1,28
 785 857 785 857 736 898.5 c 128,-1,29
 687 940 687 940 605 940 c 0,30,31
 416 940 416 940 377 856 c 0,32,33
 353 806 353 806 353 745 c 2,34,-1
 353 718 l 1,35,-1
 172 718 l 1,36,-1
 172 746 l 2,37,38
 172 905 172 905 278 992.5 c 128,-1,39
 384 1080 384 1080 590 1080 c 0,40,41
 699 1080 699 1080 779.5 1044 c 128,-1,42
 860 1008 860 1008 887 939 c 1,43,44
 976 1080 976 1080 1188.5 1080 c 128,-1,45
 1401 1080 1401 1080 1505 996 c 128,-1,46
 1609 912 1609 912 1609 758 c 2,47,-1
 1609 511 l 1,48,-1
 973 511 l 1,49,-1
 973 328 l 2,50,51
 973 222 973 222 1026 171.5 c 128,-1,52
 1079 121 1079 121 1189 121 c 128,-1,53
 1299 121 1299 121 1325.5 131 c 128,-1,54
 1352 141 1352 141 1368 151 c 0,55,56
 1425 187 1425 187 1433 318 c 1,57,-1
 1603 318 l 1,58,59
 1587 125 1587 125 1497.5 52.5 c 128,-1,60
 1408 -20 1408 -20 1189 -20 c 0,61,62
 1054 -20 1054 -20 983.5 26 c 128,-1,63
 913 72 913 72 878 158 c 1,64,65
 731 -20 731 -20 469 -20 c 0,19,20
EndSplineSet
EndChar

StartChar: eth
Encoding: 240 240 176
Width: 1158
GlyphClass: 2
Flags: W
LayerCount: 2
Fore
SplineSet
587 833 m 0,0,1
 337 833 337 833 337 652 c 2,2,-1
 337 308 l 2,3,4
 337 207 337 207 402.5 164 c 128,-1,5
 468 121 468 121 599 121 c 0,6,7
 730 121 730 121 777 171 c 0,8,9
 823 220 823 220 827 304 c 0,10,11
 828 324 828 324 828 359 c 2,12,-1
 828 593 l 2,13,14
 828 657 828 657 805 783 c 1,15,16
 775 804 775 804 706 818.5 c 128,-1,17
 637 833 637 833 587 833 c 0,0,1
587 -20 m 0,18,19
 361 -20 361 -20 255.5 69 c 128,-1,20
 150 158 150 158 150 314 c 2,21,-1
 150 646 l 2,22,23
 150 796 150 796 269.5 885.5 c 128,-1,24
 389 975 389 975 587 975 c 0,25,26
 635 975 635 975 698 957 c 128,-1,27
 761 939 761 939 782 921 c 1,28,29
 744 1097 744 1097 606 1220 c 1,30,-1
 391 1078 l 1,31,-1
 323 1162 l 1,32,-1
 514 1288 l 1,33,34
 410 1355 410 1355 243 1407 c 1,35,-1
 317 1515 l 1,36,37
 505 1475 505 1475 646 1375 c 1,38,-1
 794 1473 l 1,39,-1
 863 1389 l 1,40,-1
 733 1303 l 1,41,42
 1010 1041 1010 1041 1010 536 c 2,43,-1
 1010 365 l 2,44,45
 1010 210 1010 210 964 131 c 0,46,47
 876 -20 876 -20 587 -20 c 0,18,19
EndSplineSet
EndChar

StartChar: divide
Encoding: 247 247 183
Width: 1025
GlyphClass: 2
Flags: W
LayerCount: 2
Fore
SplineSet
413 787 m 1,0,-1
 413 996 l 1,1,-1
 618 996 l 1,2,-1
 618 787 l 1,3,-1
 413 787 l 1,0,-1
100 472 m 1,4,-1
 100 609 l 1,5,-1
 925 609 l 1,6,-1
 925 472 l 1,7,-1
 100 472 l 1,4,-1
413 90 m 1,8,-1
 413 299 l 1,9,-1
 618 299 l 1,10,-1
 618 90 l 1,11,-1
 413 90 l 1,8,-1
EndSplineSet
EndChar

StartChar: oslash
Encoding: 248 248 184
Width: 1174
GlyphClass: 2
Flags: W
LayerCount: 2
Fore
SplineSet
587 122 m 0,0,1
 838 122 838 122 838 299 c 2,2,-1
 838 758 l 2,3,4
 838 845 838 845 778 889 c 1,5,-1
 495 129 l 1,6,7
 536 122 536 122 587 122 c 0,0,1
363 -226 m 1,8,-1
 271 -195 l 1,9,-1
 349 14 l 1,10,11
 294 35 294 35 254 68 c 0,12,13
 148 158 148 158 148 315 c 2,14,-1
 148 742 l 2,15,16
 148 899 148 899 253.5 989.5 c 128,-1,17
 359 1080 359 1080 587 1080 c 0,18,19
 673 1080 673 1080 742 1067 c 1,20,-1
 811 1251 l 1,21,-1
 901 1220 l 1,22,-1
 834 1040 l 1,23,24
 884 1020 884 1020 920 989 c 0,25,26
 1026 898 1026 898 1026 742 c 2,27,-1
 1026 315 l 2,28,29
 1026 159 1026 159 919.5 68.5 c 128,-1,30
 813 -22 813 -22 587 -22 c 0,31,32
 508 -22 508 -22 443 -11 c 1,33,-1
 363 -226 l 1,8,-1
690 926 m 1,34,35
 645 936 645 936 587 936 c 0,36,37
 336 936 336 936 336 758 c 2,38,-1
 336 299 l 2,39,40
 336 207 336 207 404 162 c 1,41,-1
 690 926 l 1,34,35
EndSplineSet
EndChar

StartChar: thorn
Encoding: 254 254 190
Width: 1194
GlyphClass: 2
Flags: W
LayerCount: 2
Fore
SplineSet
365 179 m 1,0,1
 475 117 475 117 595.5 117 c 128,-1,2
 716 117 716 117 786 172.5 c 128,-1,3
 856 228 856 228 856 324 c 2,4,-1
 856 742 l 2,5,6
 856 834 856 834 787 884 c 128,-1,7
 718 934 718 934 620.5 934 c 128,-1,8
 523 934 523 934 454.5 894.5 c 128,-1,9
 386 855 386 855 365 824 c 1,10,-1
 365 179 l 1,0,1
177 -408 m 1,11,-1
 179 1506 l 1,12,-1
 365 1506 l 1,13,-1
 365 994 l 1,14,15
 412 1029 412 1029 486 1052.5 c 128,-1,16
 560 1076 560 1076 639 1076 c 0,17,18
 836 1076 836 1076 940 981.5 c 128,-1,19
 1044 887 1044 887 1044 729 c 2,20,-1
 1044 344 l 2,21,22
 1044 180 1044 180 930.5 78 c 128,-1,23
 817 -24 817 -24 615 -24 c 0,24,25
 479 -24 479 -24 365 34 c 1,26,-1
 365 -408 l 1,27,-1
 177 -408 l 1,11,-1
EndSplineSet
EndChar

StartChar: dcroat
Encoding: 273 273 208
Width: 1200
GlyphClass: 2
Flags: W
LayerCount: 2
Fore
SplineSet
403.5 176 m 128,-1,1
 471 126 471 126 562 126 c 0,2,3
 724 126 724 126 826 189 c 1,4,-1
 826 892 l 1,5,6
 735 936 735 936 605 936 c 0,7,8
 336 936 336 936 336 756 c 2,9,-1
 336 321 l 2,10,0
 336 226 336 226 403.5 176 c 128,-1,1
591 1080 m 0,11,12
 719 1080 719 1080 826 1040 c 1,13,-1
 826 1249 l 1,14,-1
 462 1249 l 1,15,-1
 462 1373 l 1,16,-1
 826 1373 l 1,17,-1
 826 1506 l 1,18,-1
 1014 1506 l 1,19,-1
 1014 1373 l 1,20,-1
 1177 1373 l 1,21,-1
 1177 1249 l 1,22,-1
 1014 1249 l 1,23,-1
 1014 0 l 1,24,-1
 886 0 l 1,25,-1
 855 70 l 1,26,27
 806 32 806 32 726 5 c 128,-1,28
 646 -22 646 -22 568 -22 c 0,29,30
 351 -22 351 -22 249.5 74.5 c 128,-1,31
 148 171 148 171 148 335 c 2,32,-1
 148 735 l 2,33,34
 148 900 148 900 257 990 c 128,-1,35
 366 1080 366 1080 591 1080 c 0,11,12
EndSplineSet
EndChar

StartChar: Hbar
Encoding: 294 294 229
Width: 1536
GlyphClass: 2
Flags: W
LayerCount: 2
Fore
SplineSet
144 1060 m 1,0,-1
 144 1184 l 1,1,-1
 212 1184 l 1,2,-1
 212 1446 l 1,3,-1
 413 1446 l 1,4,-1
 413 1184 l 1,5,-1
 1115 1184 l 1,6,-1
 1115 1446 l 1,7,-1
 1316 1446 l 1,8,-1
 1316 1184 l 1,9,-1
 1392 1184 l 1,10,-1
 1392 1060 l 1,11,-1
 1316 1060 l 1,12,-1
 1316 0 l 1,13,-1
 1115 0 l 1,14,-1
 1115 659 l 1,15,-1
 413 659 l 1,16,-1
 413 0 l 1,17,-1
 212 0 l 1,18,-1
 212 1060 l 1,19,-1
 144 1060 l 1,0,-1
413 1060 m 1,20,-1
 413 807 l 1,21,-1
 1115 807 l 1,22,-1
 1115 1060 l 1,23,-1
 413 1060 l 1,20,-1
EndSplineSet
EndChar

StartChar: hbar
Encoding: 295 295 230
Width: 1224
GlyphClass: 2
Flags: W
LayerCount: 2
Fore
SplineSet
862 783 m 2,0,1
 862 936 862 936 626 936 c 0,2,3
 508 936 508 936 441 887 c 128,-1,4
 374 838 374 838 374 758 c 2,5,-1
 374 0 l 1,6,-1
 186 0 l 1,7,-1
 186 1249 l 1,8,-1
 29 1249 l 1,9,-1
 29 1373 l 1,10,-1
 186 1373 l 1,11,-1
 186 1505 l 1,12,-1
 374 1505 l 1,13,-1
 374 1373 l 1,14,-1
 844 1373 l 1,15,-1
 844 1249 l 1,16,-1
 374 1249 l 1,17,-1
 374 960 l 1,18,19
 477 1080 477 1080 690 1080 c 0,20,21
 960 1080 960 1080 1030 892 c 0,22,23
 1050 838 1050 838 1050 773 c 2,24,-1
 1050 0 l 1,25,-1
 862 0 l 1,26,-1
 862 783 l 2,0,1
EndSplineSet
EndChar

StartChar: dotlessi
Encoding: 305 305 240
Width: 596
GlyphClass: 2
Flags: W
LayerCount: 2
Fore
SplineSet
206 0 m 1,0,-1
 206 1060 l 1,1,-1
 394 1060 l 1,2,-1
 394 0 l 1,3,-1
 206 0 l 1,0,-1
EndSplineSet
EndChar

StartChar: kgreenlandic
Encoding: 312 312 247
Width: 1148
GlyphClass: 2
Flags: W
LayerCount: 2
Fore
SplineSet
374 510 m 1,0,-1
 871 1060 l 1,1,-1
 1079 1060 l 1,2,-1
 665 583 l 1,3,-1
 1122 0 l 1,4,-1
 905 0 l 1,5,-1
 521 498 l 1,6,-1
 374 354 l 1,7,-1
 374 0 l 1,8,-1
 186 0 l 1,9,-1
 186 1060 l 1,10,-1
 374 1060 l 1,11,-1
 374 510 l 1,0,-1
EndSplineSet
EndChar

StartChar: Lslash
Encoding: 321 321 256
Width: 1145
GlyphClass: 2
Flags: W
LayerCount: 2
Fore
SplineSet
52 616 m 1,0,-1
 52 740 l 1,1,-1
 218 823 l 1,2,-1
 218 1446 l 1,3,-1
 419 1446 l 1,4,-1
 419 923 l 1,5,-1
 826 1126 l 1,6,-1
 826 1002 l 1,7,-1
 419 799 l 1,8,-1
 419 155 l 1,9,-1
 1068 155 l 1,10,-1
 1068 0 l 1,11,-1
 218 0 l 1,12,-1
 218 699 l 1,13,-1
 52 616 l 1,0,-1
EndSplineSet
EndChar

StartChar: lslash
Encoding: 322 322 257
Width: 708
GlyphClass: 2
Flags: W
LayerCount: 2
Fore
SplineSet
530 -8 m 2,0,1
 437 -8 437 -8 378 6 c 128,-1,2
 319 20 319 20 274 59 c 0,3,4
 190 132 190 132 190 358 c 2,5,-1
 190 684 l 1,6,-1
 52 616 l 1,7,-1
 52 740 l 1,8,-1
 190 808 l 1,9,-1
 190 1505 l 1,10,-1
 378 1505 l 1,11,-1
 378 900 l 1,12,-1
 604 1011 l 1,13,-1
 604 887 l 1,14,-1
 378 776 l 1,15,-1
 378 356 l 2,16,17
 378 228 378 228 416 189 c 128,-1,18
 454 150 454 150 573 150 c 2,19,-1
 606 150 l 1,20,-1
 584 -8 l 1,21,-1
 530 -8 l 2,0,1
EndSplineSet
EndChar

StartChar: OE
Encoding: 338 338 270
Width: 1557
GlyphClass: 2
Flags: W
LayerCount: 2
Fore
SplineSet
765 150 m 2,0,-1
 775 150 l 1,1,-1
 775 1295 l 1,2,-1
 764 1295 l 2,3,4
 572 1295 572 1295 478.5 1217 c 128,-1,5
 385 1139 385 1139 385 955 c 2,6,-1
 385 479 l 2,7,8
 385 296 385 296 477 223 c 128,-1,9
 569 150 569 150 765 150 c 2,0,-1
775 0 m 2,10,11
 372 0 372 0 252 201 c 0,12,13
 182 317 182 317 183 510 c 2,14,-1
 183 918 l 2,15,16
 183 1229 183 1229 357 1349 c 0,17,18
 497 1446 497 1446 775 1446 c 2,19,-1
 1390 1446 l 1,20,-1
 1390 1296 l 1,21,-1
 976 1296 l 1,22,-1
 976 814 l 1,23,-1
 1329 814 l 1,24,-1
 1329 664 l 1,25,-1
 976 664 l 1,26,-1
 976 150 l 1,27,-1
 1399 150 l 1,28,-1
 1399 0 l 1,29,-1
 775 0 l 2,10,11
EndSplineSet
EndChar

StartChar: oe
Encoding: 339 339 271
Width: 1734
GlyphClass: 2
Flags: W
LayerCount: 2
Fore
SplineSet
979 633 m 1,0,-1
 1422 633 l 1,1,-1
 1422 778 l 2,2,3
 1422 869 1422 869 1368 903.5 c 128,-1,4
 1314 938 1314 938 1198.5 938 c 128,-1,5
 1083 938 1083 938 1031 897.5 c 128,-1,6
 979 857 979 857 979 760 c 2,7,-1
 979 633 l 1,0,-1
569 121 m 0,8,9
 791 121 791 121 791 301 c 2,10,-1
 791 763 l 2,11,12
 791 855 791 855 735.5 896.5 c 128,-1,13
 680 938 680 938 569 938 c 128,-1,14
 458 938 458 938 398 897.5 c 128,-1,15
 338 857 338 857 338 763 c 2,16,-1
 338 301 l 2,17,18
 338 206 338 206 396.5 163.5 c 128,-1,19
 455 121 455 121 569 121 c 0,8,9
569 -20 m 0,20,21
 150 -20 150 -20 150 317 c 2,22,-1
 150 747 l 2,23,24
 150 899 150 899 262 989.5 c 128,-1,25
 374 1080 374 1080 579.5 1080 c 128,-1,26
 785 1080 785 1080 883 950 c 1,27,28
 975 1080 975 1080 1188 1080 c 128,-1,29
 1401 1080 1401 1080 1502.5 996 c 128,-1,30
 1604 912 1604 912 1604 758 c 2,31,-1
 1604 506 l 1,32,-1
 979 506 l 1,33,-1
 979 328 l 2,34,35
 979 222 979 222 1033 171.5 c 128,-1,36
 1087 121 1087 121 1176 121 c 128,-1,37
 1265 121 1265 121 1303.5 128 c 0,38,39
 1342 136 1342 136 1372 158 c 0,40,41
 1423 196 1423 196 1433 331 c 1,42,-1
 1603 331 l 1,43,44
 1587 135 1587 135 1500 57.5 c 128,-1,45
 1413 -20 1413 -20 1200 -20 c 128,-1,46
 987 -20 987 -20 883 122 c 1,47,48
 785 -20 785 -20 569 -20 c 0,20,21
EndSplineSet
EndChar

StartChar: florin
Encoding: 402 402 311
Width: 890
GlyphClass: 2
Flags: W
LayerCount: 2
Fore
SplineSet
251 -190 m 0,0,1
 197 -190 197 -190 141 -183 c 1,2,-1
 141 -59 l 1,3,4
 158 -61 158 -61 214 -61 c 0,5,6
 334 -61 334 -61 333 63 c 2,7,-1
 333 727 l 1,8,-1
 216 727 l 1,9,-1
 216 858 l 1,10,-1
 333 858 l 1,11,-1
 333 1155 l 2,12,13
 333 1321 333 1321 393 1392.5 c 128,-1,14
 453 1464 453 1464 606 1464 c 0,15,16
 653 1464 653 1464 710 1458 c 1,17,-1
 710 1334 l 1,18,19
 698 1335 698 1335 664 1335 c 0,20,21
 579 1335 579 1335 550 1290.5 c 128,-1,22
 521 1246 521 1246 521 1177 c 2,23,-1
 521 858 l 1,24,-1
 650 858 l 1,25,-1
 650 727 l 1,26,-1
 521 727 l 1,27,-1
 521 91 l 2,28,29
 521 -55 521 -55 459.5 -122.5 c 128,-1,30
 398 -190 398 -190 251 -190 c 0,0,1
EndSplineSet
EndChar

StartChar: uni0237
Encoding: 567 567 354
Width: 602
GlyphClass: 2
Flags: W
LayerCount: 2
Fore
SplineSet
32 -353 m 1,0,-1
 13 -197 l 1,1,-1
 42 -197 l 2,2,3
 144 -197 144 -197 178 -170.5 c 128,-1,4
 212 -144 212 -144 222 -105.5 c 128,-1,5
 232 -67 232 -67 232 -4 c 2,6,-1
 232 1060 l 1,7,-1
 420 1060 l 1,8,-1
 420 7 l 2,9,10
 420 -254 420 -254 300 -316 c 0,11,12
 229 -353 229 -353 98 -353 c 2,13,-1
 32 -353 l 1,0,-1
EndSplineSet
EndChar

StartChar: circumflex
Encoding: 710 710 355
Width: 512
GlyphClass: 2
Flags: W
LayerCount: 2
Fore
SplineSet
-30 1240 m 1,0,-1
 186 1506 l 1,1,-1
 336 1506 l 1,2,-1
 542 1240 l 1,3,-1
 386 1240 l 1,4,-1
 262 1414 l 1,5,-1
 130 1240 l 1,6,-1
 -30 1240 l 1,0,-1
EndSplineSet
EndChar

StartChar: caron
Encoding: 711 711 356
Width: 512
GlyphClass: 2
Flags: W
LayerCount: 2
Fore
SplineSet
175 1240 m 1,0,-1
 -30 1506 l 1,1,-1
 125 1506 l 1,2,-1
 249 1332 l 1,3,-1
 381 1506 l 1,4,-1
 542 1506 l 1,5,-1
 325 1240 l 1,6,-1
 175 1240 l 1,0,-1
EndSplineSet
EndChar

StartChar: breve
Encoding: 728 728 357
Width: 512
GlyphClass: 2
Flags: W
LayerCount: 2
Fore
SplineSet
256 1294 m 128,-1,1
 155 1294 155 1294 92.5 1355.5 c 128,-1,2
 30 1417 30 1417 30 1506 c 1,3,-1
 135 1506 l 1,4,5
 135 1456 135 1456 169.5 1423 c 128,-1,6
 204 1390 204 1390 258 1390 c 0,7,8
 312 1390 312 1390 344.5 1422 c 128,-1,9
 377 1454 377 1454 377 1506 c 1,10,-1
 482 1506 l 1,11,12
 482 1417 482 1417 419.5 1355.5 c 128,-1,0
 357 1294 357 1294 256 1294 c 128,-1,1
EndSplineSet
EndChar

StartChar: dotaccent
Encoding: 729 729 358
Width: 512
GlyphClass: 2
Flags: W
LayerCount: 2
Fore
SplineSet
136 1275 m 1,0,-1
 136 1506 l 1,1,-1
 376 1506 l 1,2,-1
 376 1275 l 1,3,-1
 136 1275 l 1,0,-1
EndSplineSet
EndChar

StartChar: ring
Encoding: 730 730 359
Width: 512
GlyphClass: 2
Flags: W
LayerCount: 2
Fore
SplineSet
256 1150 m 128,-1,1
 174 1150 174 1150 118 1195.5 c 128,-1,2
 62 1241 62 1241 62 1328 c 128,-1,3
 62 1415 62 1415 118 1460.5 c 128,-1,4
 174 1506 174 1506 256 1506 c 128,-1,5
 338 1506 338 1506 394 1460.5 c 128,-1,6
 450 1415 450 1415 450 1328 c 128,-1,7
 450 1241 450 1241 394 1195.5 c 128,-1,0
 338 1150 338 1150 256 1150 c 128,-1,1
256 1215 m 128,-1,9
 365 1215 365 1215 365 1328 c 0,10,11
 365 1441 365 1441 256 1441 c 0,12,13
 208 1441 208 1441 177.5 1415 c 128,-1,14
 147 1389 147 1389 147 1329 c 0,15,8
 147 1215 147 1215 256 1215 c 128,-1,9
EndSplineSet
EndChar

StartChar: ogonek
Encoding: 731 731 360
Width: 513
GlyphClass: 2
Flags: W
LayerCount: 2
Fore
SplineSet
403 -486 m 1,0,1
 269 -486 269 -486 189.5 -433 c 128,-1,2
 110 -380 110 -380 110 -291 c 0,3,4
 110 -154 110 -154 292 0 c 1,5,-1
 354 0 l 1,6,7
 303 -49 303 -49 268.5 -120.5 c 128,-1,8
 234 -192 234 -192 234 -255 c 0,9,10
 234 -389 234 -389 403 -389 c 1,11,-1
 403 -486 l 1,0,1
EndSplineSet
EndChar

StartChar: tilde
Encoding: 732 732 361
Width: 512
GlyphClass: 2
Flags: W
LayerCount: 2
Fore
SplineSet
5.5 1317 m 128,-1,1
 -41 1371 -41 1371 -41 1492 c 1,2,-1
 56 1492 l 1,3,4
 56 1447 56 1447 75 1423 c 128,-1,5
 94 1399 94 1399 130 1399 c 0,6,7
 166 1399 166 1399 221 1452.5 c 128,-1,8
 276 1506 276 1506 367.5 1506 c 128,-1,9
 459 1506 459 1506 505.5 1452 c 128,-1,10
 552 1398 552 1398 552 1277 c 1,11,-1
 455 1277 l 1,12,13
 455 1322 455 1322 436 1346 c 128,-1,14
 417 1370 417 1370 381 1370 c 0,15,16
 345 1370 345 1370 290 1316.5 c 128,-1,17
 235 1263 235 1263 143.5 1263 c 128,-1,0
 52 1263 52 1263 5.5 1317 c 128,-1,1
EndSplineSet
EndChar

StartChar: hungarumlaut
Encoding: 733 733 362
Width: 1024
GlyphClass: 2
Flags: W
LayerCount: 2
Fore
SplineSet
451 1031 m 1,0,-1
 651 1506 l 1,1,-1
 870 1506 l 1,2,-1
 574 1031 l 1,3,-1
 451 1031 l 1,0,-1
154 1031 m 1,4,-1
 260 1506 l 1,5,-1
 471 1506 l 1,6,-1
 252 1031 l 1,7,-1
 154 1031 l 1,4,-1
EndSplineSet
EndChar

StartChar: uni030F
Encoding: 783 783 363
Width: 1024
GlyphClass: 2
Flags: W
LayerCount: 2
Fore
SplineSet
772 1031 m 1,0,-1
 553 1506 l 1,1,-1
 764 1506 l 1,2,-1
 870 1031 l 1,3,-1
 772 1031 l 1,0,-1
450 1031 m 1,4,-1
 154 1506 l 1,5,-1
 373 1506 l 1,6,-1
 573 1031 l 1,7,-1
 450 1031 l 1,4,-1
EndSplineSet
EndChar

StartChar: uni0311
Encoding: 785 785 364
Width: 512
GlyphClass: 2
Flags: W
LayerCount: 2
Fore
SplineSet
30 1294 m 1,0,1
 30 1383 30 1383 92.5 1444.5 c 128,-1,2
 155 1506 155 1506 256 1506 c 128,-1,3
 357 1506 357 1506 419.5 1444.5 c 128,-1,4
 482 1383 482 1383 482 1294 c 1,5,-1
 377 1294 l 1,6,7
 377 1344 377 1344 342.5 1377 c 128,-1,8
 308 1410 308 1410 254 1410 c 0,9,10
 200 1410 200 1410 167.5 1378 c 128,-1,11
 135 1346 135 1346 135 1294 c 1,12,-1
 30 1294 l 1,0,1
EndSplineSet
EndChar

StartChar: Delta
Encoding: 916 916 365
Width: 1428
GlyphClass: 2
Flags: W
LayerCount: 2
Fore
SplineSet
1237 0 m 1,0,-1
 191 0 l 1,1,-1
 625 1446 l 1,2,-1
 802 1446 l 1,3,-1
 1237 0 l 1,0,-1
422 143 m 1,4,-1
 1013 143 l 1,5,-1
 719 1196 l 1,6,-1
 422 143 l 1,4,-1
EndSplineSet
EndChar

StartChar: endash
Encoding: 8211 8211 388
Width: 539
GlyphClass: 2
Flags: W
LayerCount: 2
Fore
SplineSet
2 606 m 1,0,-1
 2 732 l 1,1,-1
 535 732 l 1,2,-1
 535 606 l 1,3,-1
 2 606 l 1,0,-1
EndSplineSet
EndChar

StartChar: emdash
Encoding: 8212 8212 389
Width: 1101
GlyphClass: 2
Flags: W
LayerCount: 2
Fore
SplineSet
2 402 m 1,0,-1
 2 548 l 1,1,-1
 1098 548 l 1,2,-1
 1098 402 l 1,3,-1
 2 402 l 1,0,-1
EndSplineSet
EndChar

StartChar: dagger
Encoding: 8224 8224 396
Width: 890
GlyphClass: 2
Flags: W
LayerCount: 2
Fore
SplineSet
348 0 m 1,0,-1
 348 931 l 1,1,-1
 88 931 l 1,2,-1
 88 1060 l 1,3,-1
 348 1060 l 1,4,-1
 348 1446 l 1,5,-1
 536 1446 l 1,6,-1
 536 1060 l 1,7,-1
 802 1060 l 1,8,-1
 802 931 l 1,9,-1
 536 931 l 1,10,-1
 536 0 l 1,11,-1
 348 0 l 1,0,-1
EndSplineSet
EndChar

StartChar: daggerdbl
Encoding: 8225 8225 397
Width: 938
GlyphClass: 2
Flags: W
LayerCount: 2
Fore
SplineSet
372 0 m 1,0,-1
 372 409 l 1,1,-1
 112 409 l 1,2,-1
 112 538 l 1,3,-1
 372 538 l 1,4,-1
 372 931 l 1,5,-1
 112 931 l 1,6,-1
 112 1060 l 1,7,-1
 372 1060 l 1,8,-1
 372 1446 l 1,9,-1
 560 1446 l 1,10,-1
 560 1060 l 1,11,-1
 826 1060 l 1,12,-1
 826 931 l 1,13,-1
 560 931 l 1,14,-1
 560 538 l 1,15,-1
 826 538 l 1,16,-1
 826 409 l 1,17,-1
 560 409 l 1,18,-1
 560 0 l 1,19,-1
 372 0 l 1,0,-1
EndSplineSet
EndChar

StartChar: bullet
Encoding: 8226 8226 398
Width: 975
GlyphClass: 2
Flags: W
LayerCount: 2
Fore
SplineSet
723 373 m 128,-1,1
 651 298 651 298 486.5 298 c 128,-1,2
 322 298 322 298 251 372.5 c 128,-1,3
 180 447 180 447 180 599 c 128,-1,4
 180 751 180 751 251.5 826 c 128,-1,5
 323 901 323 901 487.5 901 c 128,-1,6
 652 901 652 901 723.5 826 c 128,-1,7
 795 751 795 751 795 599.5 c 128,-1,0
 795 448 795 448 723 373 c 128,-1,1
EndSplineSet
EndChar

StartChar: perthousand
Encoding: 8240 8240 400
Width: 2886
GlyphClass: 2
Flags: W
LayerCount: 2
Fore
SplineSet
705 0 m 1,0,-1
 1248 1446 l 1,1,-1
 1397 1446 l 1,2,-1
 859 0 l 1,3,-1
 705 0 l 1,0,-1
2623 78.5 m 128,-1,5
 2554 -19 2554 -19 2390.5 -19 c 128,-1,6
 2227 -19 2227 -19 2159.5 78.5 c 128,-1,7
 2092 176 2092 176 2092 360 c 2,8,-1
 2092 413 l 2,9,10
 2092 599 2092 599 2158.5 691.5 c 128,-1,11
 2225 784 2225 784 2392 784 c 128,-1,12
 2559 784 2559 784 2624.5 689 c 128,-1,13
 2690 594 2690 594 2692 414 c 1,14,-1
 2692 360 l 2,15,4
 2692 176 2692 176 2623 78.5 c 128,-1,5
2390 97 m 0,16,17
 2504 97 2504 97 2532 196 c 0,18,19
 2548 250 2548 250 2547 343 c 2,20,-1
 2547 436 l 2,21,22
 2547 584 2547 584 2508.5 626 c 128,-1,23
 2470 668 2470 668 2409 668 c 128,-1,24
 2348 668 2348 668 2319 656 c 0,25,26
 2264 634 2264 634 2249.5 580 c 128,-1,27
 2235 526 2235 526 2235 438 c 2,28,-1
 2235 343 l 2,29,30
 2235 193 2235 193 2273.5 145 c 128,-1,31
 2312 97 2312 97 2390 97 c 0,16,17
1844 78.5 m 128,-1,33
 1775 -19 1775 -19 1611.5 -19 c 128,-1,34
 1448 -19 1448 -19 1380.5 78.5 c 128,-1,35
 1313 176 1313 176 1313 360 c 2,36,-1
 1313 413 l 2,37,38
 1313 599 1313 599 1379.5 691.5 c 128,-1,39
 1446 784 1446 784 1613 784 c 128,-1,40
 1780 784 1780 784 1845.5 689 c 128,-1,41
 1911 594 1911 594 1913 414 c 1,42,-1
 1913 360 l 2,43,32
 1913 176 1913 176 1844 78.5 c 128,-1,33
1611 97 m 0,44,45
 1724 97 1724 97 1752 196 c 0,46,47
 1768 250 1768 250 1768 343 c 2,48,-1
 1768 436 l 2,49,50
 1768 584 1768 584 1729.5 626 c 128,-1,51
 1691 668 1691 668 1630 668 c 128,-1,52
 1569 668 1569 668 1540 656 c 0,53,54
 1485 634 1485 634 1470.5 580 c 128,-1,55
 1456 526 1456 526 1456 438 c 2,56,-1
 1456 343 l 2,57,58
 1456 193 1456 193 1494.5 145 c 128,-1,59
 1533 97 1533 97 1611 97 c 0,44,45
740 755.5 m 128,-1,61
 671 658 671 658 507.5 658 c 128,-1,62
 344 658 344 658 276.5 755.5 c 128,-1,63
 209 853 209 853 209 1037 c 2,64,-1
 209 1090 l 2,65,66
 209 1276 209 1276 275.5 1368.5 c 128,-1,67
 342 1461 342 1461 509 1461 c 128,-1,68
 676 1461 676 1461 741.5 1366 c 128,-1,69
 807 1271 807 1271 809 1091 c 1,70,-1
 809 1037 l 2,71,60
 809 853 809 853 740 755.5 c 128,-1,61
507 774 m 0,72,73
 620 774 620 774 648 873 c 0,74,75
 664 927 664 927 664 1020 c 2,76,-1
 664 1113 l 2,77,78
 664 1261 664 1261 625.5 1303 c 128,-1,79
 587 1345 587 1345 526 1345 c 0,80,81
 465 1346 465 1346 436 1334 c 0,82,83
 381 1312 381 1312 366.5 1257.5 c 128,-1,84
 352 1203 352 1203 352 1115 c 2,85,-1
 352 1020 l 2,86,87
 352 870 352 870 390.5 822 c 128,-1,88
 429 774 429 774 507 774 c 0,72,73
EndSplineSet
EndChar

StartChar: guilsinglleft
Encoding: 8249 8249 401
Width: 768
GlyphClass: 2
Flags: W
LayerCount: 2
Fore
SplineSet
454 80 m 1,0,-1
 174 530 l 1,1,-1
 447 980 l 1,2,-1
 594 910 l 1,3,-1
 387 530 l 1,4,-1
 594 150 l 1,5,-1
 454 80 l 1,0,-1
EndSplineSet
EndChar

StartChar: guilsinglright
Encoding: 8250 8250 402
Width: 768
GlyphClass: 2
Flags: W
LayerCount: 2
Fore
SplineSet
327 80 m 1,0,-1
 180 150 l 1,1,-1
 387 530 l 1,2,-1
 180 910 l 1,3,-1
 320 980 l 1,4,-1
 600 530 l 1,5,-1
 327 80 l 1,0,-1
EndSplineSet
EndChar

StartChar: fraction
Encoding: 8260 8260 403
Width: 768
GlyphClass: 2
Flags: W
LayerCount: 2
Fore
SplineSet
16 0 m 1,0,-1
 569 1506 l 1,1,-1
 752 1506 l 1,2,-1
 203 0 l 1,3,-1
 16 0 l 1,0,-1
EndSplineSet
EndChar

StartChar: Euro
Encoding: 8364 8364 404
Width: 1460
GlyphClass: 2
Flags: W
LayerCount: 2
Fore
SplineSet
225 219.5 m 128,-1,1
 182 330 182 330 182 486 c 2,2,-1
 182 505 l 1,3,-1
 1 505 l 1,4,-1
 1 639 l 1,5,-1
 182 639 l 1,6,-1
 182 819 l 1,7,-1
 1 819 l 1,8,-1
 1 953 l 1,9,-1
 182 953 l 1,10,11
 185 1258 185 1258 346 1371 c 0,12,13
 485 1468 485 1468 750.5 1468 c 128,-1,14
 1016 1468 1016 1468 1136 1394.5 c 128,-1,15
 1256 1321 1256 1321 1286 1164 c 0,16,17
 1300 1094 1300 1094 1300 997 c 1,18,-1
 1109 980 l 1,19,20
 1109 1126 1109 1126 1084 1177.5 c 128,-1,21
 1059 1229 1059 1229 1034.5 1251 c 128,-1,22
 1010 1273 1010 1273 954 1289.5 c 128,-1,23
 898 1306 898 1306 779 1306 c 128,-1,24
 660 1306 660 1306 592.5 1290.5 c 0,25,26
 524 1275 524 1275 476 1238 c 0,27,28
 384 1167 384 1167 384 977 c 2,29,-1
 384 953 l 1,30,-1
 743 953 l 1,31,-1
 743 819 l 1,32,-1
 384 819 l 1,33,-1
 384 639 l 1,34,-1
 743 639 l 1,35,-1
 743 505 l 1,36,-1
 384 505 l 1,37,-1
 384 455 l 2,38,39
 384 267 384 267 477 203.5 c 128,-1,40
 570 140 570 140 773.5 140 c 128,-1,41
 977 140 977 140 1033 187.5 c 0,42,43
 1089 236 1089 236 1102 328 c 0,44,45
 1109 378 1109 378 1109 448 c 1,46,-1
 1300 448 l 1,47,48
 1300 230 1300 230 1237 142 c 0,49,50
 1121 -22 1121 -22 796 -22 c 1,51,52
 523 -22 523 -22 395.5 43.5 c 128,-1,0
 268 109 268 109 225 219.5 c 128,-1,1
EndSplineSet
EndChar

StartChar: trademark
Encoding: 8482 8482 405
Width: 1843
GlyphClass: 2
Flags: W
LayerCount: 2
Fore
SplineSet
345 766 m 1,0,-1
 345 1332 l 1,1,-1
 133 1332 l 1,2,-1
 133 1446 l 1,3,-1
 692 1446 l 1,4,-1
 692 1332 l 1,5,-1
 480 1332 l 1,6,-1
 480 766 l 1,7,-1
 345 766 l 1,0,-1
845 766 m 1,8,-1
 845 1446 l 1,9,-1
 1043 1446 l 1,10,-1
 1227 1033 l 1,11,-1
 1413 1446 l 1,12,-1
 1609 1446 l 1,13,-1
 1609 766 l 1,14,-1
 1482 766 l 1,15,-1
 1482 1329 l 1,16,-1
 1310 931 l 1,17,-1
 1149 931 l 1,18,-1
 970 1329 l 1,19,-1
 970 766 l 1,20,-1
 845 766 l 1,8,-1
EndSplineSet
EndChar

StartChar: product
Encoding: 8719 8719 406
Width: 1792
GlyphClass: 2
Flags: W
LayerCount: 2
Fore
SplineSet
1186.5 42.5 m 128,-1,1
 1050 -14 1050 -14 871 -14 c 128,-1,2
 692 -14 692 -14 523.5 82 c 128,-1,3
 355 178 355 178 257.5 347 c 128,-1,4
 160 516 160 516 160 721.5 c 128,-1,5
 160 927 160 927 257.5 1095.5 c 128,-1,6
 355 1264 355 1264 523.5 1360 c 128,-1,7
 692 1456 692 1456 896.5 1456 c 128,-1,8
 1101 1456 1101 1456 1270 1360 c 128,-1,9
 1439 1264 1439 1264 1535.5 1095.5 c 128,-1,10
 1632 927 1632 927 1632 747 c 128,-1,11
 1632 567 1632 567 1575 430.5 c 128,-1,12
 1518 294 1518 294 1420.5 196.5 c 128,-1,0
 1323 99 1323 99 1186.5 42.5 c 128,-1,1
574.5 165.5 m 128,-1,14
 719 82 719 82 898.5 82 c 128,-1,15
 1078 82 1078 82 1222 165.5 c 128,-1,16
 1366 249 1366 249 1446 395 c 128,-1,17
 1526 541 1526 541 1526 721.5 c 128,-1,18
 1526 902 1526 902 1446 1048 c 128,-1,19
 1366 1194 1366 1194 1222 1277.5 c 128,-1,20
 1078 1361 1078 1361 898.5 1361 c 128,-1,21
 719 1361 719 1361 574.5 1277.5 c 128,-1,22
 430 1194 430 1194 349.5 1048 c 128,-1,23
 269 902 269 902 269 722 c 128,-1,24
 269 542 269 542 349.5 395.5 c 128,-1,13
 430 249 430 249 574.5 165.5 c 128,-1,14
791 742 m 1,25,-1
 977 742 l 2,26,27
 1111 742 1111 742 1113 877 c 1,28,-1
 1113 901 l 2,29,30
 1113 1062 1113 1062 986 1062 c 2,31,-1
 791 1062 l 1,32,-1
 791 742 l 1,25,-1
660 319 m 1,33,-1
 660 1153 l 1,34,-1
 982 1153 l 2,35,36
 1239 1153 1239 1153 1245 908 c 1,37,-1
 1245 894 l 2,38,39
 1245 781 1245 781 1183.5 716.5 c 128,-1,40
 1122 652 1122 652 969 652 c 2,41,-1
 791 652 l 1,42,-1
 791 319 l 1,43,-1
 660 319 l 1,33,-1
EndSplineSet
EndChar

StartChar: minus
Encoding: 8722 8722 407
Width: 911
GlyphClass: 2
Flags: W
LayerCount: 2
Fore
SplineSet
142 439 m 1,0,-1
 142 609 l 1,1,-1
 769 609 l 1,2,-1
 769 439 l 1,3,-1
 142 439 l 1,0,-1
EndSplineSet
EndChar

StartChar: infinity
Encoding: 8734 8734 409
Width: 1650
GlyphClass: 2
Flags: W
LayerCount: 2
Fore
SplineSet
1261 1027 m 0,0,1
 1228 1027 1228 1027 1142.5 976.5 c 128,-1,2
 1057 926 1057 926 988 876 c 2,3,-1
 919 826 l 1,4,5
 1010 753 1010 753 1119 684.5 c 128,-1,6
 1228 616 1228 616 1261 616 c 0,7,8
 1335 616 1335 616 1376 676.5 c 128,-1,9
 1417 737 1417 737 1417 821 c 128,-1,10
 1417 905 1417 905 1376 966 c 128,-1,11
 1335 1027 1335 1027 1261 1027 c 0,0,1
236.5 1129.5 m 128,-1,13
 296 1158 296 1158 358 1158 c 0,14,15
 470 1158 470 1158 593 1086 c 128,-1,16
 716 1014 716 1014 789 956 c 2,17,-1
 818 933 l 1,18,-1
 850 957 l 2,19,20
 1012 1080 1012 1080 1164 1134 c 0,21,22
 1232 1158 1232 1158 1281 1158 c 0,23,24
 1378 1158 1378 1158 1449 1108 c 128,-1,25
 1520 1058 1520 1058 1553 982.5 c 128,-1,26
 1586 907 1586 907 1586 820 c 128,-1,27
 1586 733 1586 733 1553 658.5 c 128,-1,28
 1520 584 1520 584 1449 534.5 c 128,-1,29
 1378 485 1378 485 1281 485 c 0,30,31
 1156 485 1156 485 930 647 c 0,32,33
 878 684 878 684 848 710 c 2,34,-1
 818 736 l 1,35,36
 642 576 642 576 485 512 c 0,37,38
 419 485 419 485 369 485 c 0,39,40
 272 485 272 485 201 535 c 0,41,42
 64 631 64 631 64 822 c 0,43,44
 64 954 64 954 140 1053 c 0,45,12
 177 1101 177 1101 236.5 1129.5 c 128,-1,13
376 616 m 0,46,47
 409 616 409 616 494 669 c 128,-1,48
 579 722 579 722 648 776 c 2,49,-1
 717 829 l 1,50,51
 610 908 610 908 509.5 967.5 c 128,-1,52
 409 1027 409 1027 376 1027 c 0,53,54
 302 1027 302 1027 261 966 c 128,-1,55
 220 905 220 905 220 821 c 128,-1,56
 220 737 220 737 261 676.5 c 128,-1,57
 302 616 302 616 376 616 c 0,46,47
EndSplineSet
EndChar

StartChar: integral
Encoding: 8747 8747 410
Width: 890
GlyphClass: 2
Flags: W
LayerCount: 2
Fore
SplineSet
251 -380 m 0,0,1
 197 -380 197 -380 141 -373 c 1,2,-1
 141 -249 l 1,3,4
 158 -251 158 -251 214 -251 c 0,5,6
 334 -251 334 -251 333 -127 c 2,7,-1
 333 1159 l 2,8,9
 333 1325 333 1325 393 1396.5 c 128,-1,10
 453 1468 453 1468 606 1468 c 0,11,12
 653 1468 653 1468 710 1462 c 1,13,-1
 710 1338 l 1,14,15
 698 1339 698 1339 664 1339 c 0,16,17
 579 1339 579 1339 550 1294.5 c 128,-1,18
 521 1250 521 1250 521 1181 c 2,19,-1
 521 -99 l 2,20,21
 521 -245 521 -245 459.5 -312.5 c 128,-1,22
 398 -380 398 -380 251 -380 c 0,0,1
EndSplineSet
EndChar

StartChar: approxequal
Encoding: 8776 8776 411
Width: 881
GlyphClass: 2
Flags: W
LayerCount: 2
Fore
SplineSet
470 1145.5 m 128,-1,1
 573 1087 573 1087 610 1087 c 0,2,3
 720 1087 720 1087 720 1190 c 1,4,-1
 817 1190 l 1,5,6
 817 1071 817 1071 756 1006 c 128,-1,7
 695 941 695 941 607 941 c 0,8,9
 520 941 520 941 354 1029 c 0,10,11
 300 1058 300 1058 271 1058 c 0,12,13
 161 1058 161 1058 161 955 c 1,14,-1
 64 955 l 1,15,16
 64 1074 64 1074 125 1139 c 128,-1,17
 186 1204 186 1204 276.5 1204 c 128,-1,0
 367 1204 367 1204 470 1145.5 c 128,-1,1
470 839.5 m 128,-1,19
 573 781 573 781 610 781 c 0,20,21
 720 781 720 781 720 884 c 1,22,-1
 817 884 l 1,23,24
 817 765 817 765 756 700 c 128,-1,25
 695 635 695 635 607 635 c 0,26,27
 520 635 520 635 354 723 c 0,28,29
 300 752 300 752 271 752 c 0,30,31
 161 752 161 752 161 649 c 1,32,-1
 64 649 l 1,33,34
 64 768 64 768 125 833 c 128,-1,35
 186 898 186 898 276.5 898 c 128,-1,18
 367 898 367 898 470 839.5 c 128,-1,19
EndSplineSet
EndChar

StartChar: lozenge
Encoding: 9674 9674 415
Width: 1104
GlyphClass: 2
Flags: W
LayerCount: 2
Fore
SplineSet
567 160 m 1,0,-1
 814 725 l 1,1,-1
 567 1276 l 1,2,-1
 295 725 l 1,3,-1
 567 160 l 1,0,-1
480 0 m 1,4,-1
 116 725 l 1,5,-1
 480 1446 l 1,6,-1
 650 1446 l 1,7,-1
 988 725 l 1,8,-1
 650 0 l 1,9,-1
 480 0 l 1,4,-1
EndSplineSet
EndChar

StartChar: uniFB00
Encoding: 64256 64256 416
Width: 1542
GlyphClass: 2
Flags: W
LayerCount: 2
Fore
SplineSet
1039 0 m 1,0,-1
 1039 918 l 1,1,-1
 475 918 l 1,2,-1
 475 0 l 1,3,-1
 287 0 l 1,4,-1
 287 918 l 1,5,-1
 110 918 l 1,6,-1
 110 1060 l 1,7,-1
 287 1060 l 1,8,-1
 287 1221 l 2,9,10
 287 1368 287 1368 367.5 1436.5 c 128,-1,11
 448 1505 448 1505 613 1505 c 2,12,-1
 732 1505 l 1,13,-1
 744 1372 l 1,14,-1
 628 1372 l 2,15,16
 475 1372 475 1372 475 1239 c 2,17,-1
 475 1060 l 1,18,-1
 1039 1060 l 1,19,-1
 1039 1221 l 2,20,21
 1039 1368 1039 1368 1119.5 1436.5 c 128,-1,22
 1200 1505 1200 1505 1365 1505 c 2,23,-1
 1484 1505 l 1,24,-1
 1496 1372 l 1,25,-1
 1380 1372 l 2,26,27
 1227 1372 1227 1372 1227 1239 c 2,28,-1
 1227 1060 l 1,29,-1
 1484 1060 l 1,30,-1
 1484 918 l 1,31,-1
 1227 918 l 1,32,-1
 1227 0 l 1,33,-1
 1039 0 l 1,0,-1
EndSplineSet
EndChar

StartChar: uniFB01
Encoding: 64257 64257 417
Width: 1386
GlyphClass: 3
Flags: W
LayerCount: 2
Fore
SplineSet
287 0 m 1,0,-1
 287 918 l 1,1,-1
 110 918 l 1,2,-1
 110 1060 l 1,3,-1
 287 1060 l 1,4,-1
 287 1222 l 2,5,6
 287 1369 287 1369 367.5 1437 c 128,-1,7
 448 1505 448 1505 613 1505 c 2,8,-1
 732 1505 l 1,9,-1
 744 1372 l 1,10,-1
 628 1372 l 2,11,12
 475 1372 475 1372 475 1240 c 2,13,-1
 475 1060 l 1,14,-1
 1184 1060 l 1,15,-1
 1184 0 l 1,16,-1
 996 0 l 1,17,-1
 996 918 l 1,18,-1
 475 918 l 1,19,-1
 475 0 l 1,20,-1
 287 0 l 1,0,-1
996 1251 m 1,21,-1
 996 1446 l 1,22,-1
 1184 1446 l 1,23,-1
 1184 1251 l 1,24,-1
 996 1251 l 1,21,-1
EndSplineSet
Ligature2: "'liga' Standard Ligatures lookup 0 subtable" f i
EndChar

StartChar: uniFB02
Encoding: 64258 64258 418
Width: 1486
GlyphClass: 3
Flags: W
LayerCount: 2
Fore
SplineSet
1320 -8 m 2,0,1
 1227 -8 1227 -8 1168 6 c 128,-1,2
 1109 20 1109 20 1064 59 c 0,3,4
 980 132 980 132 980 358 c 2,5,-1
 980 1372 l 1,6,-1
 628 1372 l 2,7,8
 475 1372 475 1372 475 1239 c 2,9,-1
 475 1060 l 1,10,-1
 732 1060 l 1,11,-1
 732 918 l 1,12,-1
 475 918 l 1,13,-1
 475 0 l 1,14,-1
 287 0 l 1,15,-1
 287 918 l 1,16,-1
 110 918 l 1,17,-1
 110 1060 l 1,18,-1
 287 1060 l 1,19,-1
 287 1221 l 2,20,21
 287 1368 287 1368 367.5 1436.5 c 128,-1,22
 448 1505 448 1505 613 1505 c 2,23,-1
 1168 1505 l 1,24,-1
 1168 356 l 2,25,26
 1168 228 1168 228 1206 189 c 128,-1,27
 1244 150 1244 150 1363 150 c 2,28,-1
 1396 150 l 1,29,-1
 1374 -8 l 1,30,-1
 1320 -8 l 2,0,1
EndSplineSet
Ligature2: "'liga' Standard Ligatures lookup 0 subtable" f l
EndChar

StartChar: uniFB03
Encoding: 64259 64259 419
Width: 2176
GlyphClass: 2
Flags: W
LayerCount: 2
Fore
SplineSet
1077 0 m 1,0,-1
 1077 918 l 1,1,-1
 475 918 l 1,2,-1
 475 0 l 1,3,-1
 287 0 l 1,4,-1
 287 918 l 1,5,-1
 110 918 l 1,6,-1
 110 1060 l 1,7,-1
 287 1060 l 1,8,-1
 287 1221 l 2,9,10
 287 1368 287 1368 367.5 1436.5 c 128,-1,11
 448 1505 448 1505 613 1505 c 2,12,-1
 732 1505 l 1,13,-1
 744 1372 l 1,14,-1
 628 1372 l 2,15,16
 475 1372 475 1372 475 1239 c 2,17,-1
 475 1060 l 1,18,-1
 1077 1060 l 1,19,-1
 1077 1221 l 2,20,21
 1077 1368 1077 1368 1157.5 1436.5 c 128,-1,22
 1238 1505 1238 1505 1403 1505 c 2,23,-1
 1522 1505 l 1,24,-1
 1534 1372 l 1,25,-1
 1418 1372 l 2,26,27
 1265 1372 1265 1372 1265 1239 c 2,28,-1
 1265 1060 l 1,29,-1
 1974 1060 l 1,30,-1
 1974 0 l 1,31,-1
 1786 0 l 1,32,-1
 1786 918 l 1,33,-1
 1265 918 l 1,34,-1
 1265 0 l 1,35,-1
 1077 0 l 1,0,-1
1786 1251 m 1,36,-1
 1786 1446 l 1,37,-1
 1974 1446 l 1,38,-1
 1974 1251 l 1,39,-1
 1786 1251 l 1,36,-1
EndSplineSet
EndChar

StartChar: periodcentered
Encoding: 183 183 420
Width: 412
GlyphClass: 2
Flags: W
LayerCount: 2
Fore
SplineSet
108 1277 m 1,0,-1
 108 1483 l 1,1,-1
 313 1483 l 1,2,-1
 313 1277 l 1,3,-1
 108 1277 l 1,0,-1
EndSplineSet
EndChar

StartChar: uni0307
Encoding: 775 775 422
Width: 412
GlyphClass: 2
Flags: W
LayerCount: 2
Fore
SplineSet
108 1277 m 1,0,-1
 108 1483 l 1,1,-1
 313 1483 l 1,2,-1
 313 1277 l 1,3,-1
 108 1277 l 1,0,-1
EndSplineSet
EndChar

StartChar: uni0326
Encoding: 806 806 423
Width: 769
GlyphClass: 2
Flags: W
LayerCount: 2
Fore
SplineSet
341 -664 m 1,0,-1
 260 -620 l 1,1,2
 358 -502 358 -502 384 -418 c 0,3,4
 398 -372 398 -372 397 -326 c 1,5,-1
 256 -326 l 1,6,-1
 256 -93 l 1,7,-1
 513 -93 l 1,8,-1
 513 -276 l 2,9,10
 513 -449 513 -449 393 -606 c 0,11,12
 367 -640 367 -640 341 -664 c 1,0,-1
EndSplineSet
EndChar

StartChar: uni2074
Encoding: 8308 8308 424
Width: 1267
GlyphClass: 2
Flags: W
LayerCount: 2
Fore
SplineSet
689 614 m 1,0,-1
 689 821 l 1,1,-1
 255 821 l 1,2,-1
 255 913 l 1,3,-1
 614 1506 l 1,4,-1
 755 1506 l 1,5,-1
 407 912 l 1,6,-1
 689 912 l 1,7,-1
 689 1147 l 1,8,-1
 802 1147 l 1,9,-1
 802 912 l 1,10,-1
 946 912 l 1,11,-1
 946 821 l 1,12,-1
 802 821 l 1,13,-1
 802 614 l 1,14,-1
 689 614 l 1,0,-1
EndSplineSet
EndChar

StartChar: uni2206
Encoding: 8710 8710 425
Width: 1104
GlyphClass: 2
Flags: W
LayerCount: 2
Fore
SplineSet
263 494 m 1,0,-1
 846 494 l 1,1,-1
 567 1335 l 1,2,-1
 263 494 l 1,0,-1
82 350 m 1,3,-1
 82 474 l 1,4,-1
 480 1505 l 1,5,-1
 650 1505 l 1,6,-1
 1022 474 l 1,7,-1
 1022 350 l 1,8,-1
 82 350 l 1,3,-1
EndSplineSet
EndChar

StartChar: uniFB04
Encoding: 64260 64260 426
Width: 2225
GlyphClass: 2
Flags: W
LayerCount: 2
Fore
SplineSet
2059 -8 m 2,0,1
 1966 -8 1966 -8 1907 6 c 128,-1,2
 1848 20 1848 20 1803 59 c 0,3,4
 1719 132 1719 132 1719 358 c 2,5,-1
 1719 1372 l 1,6,-1
 1367 1372 l 2,7,8
 1214 1372 1214 1372 1214 1239 c 2,9,-1
 1214 1060 l 1,10,-1
 1471 1060 l 1,11,-1
 1471 918 l 1,12,-1
 1214 918 l 1,13,-1
 1214 0 l 1,14,-1
 1026 0 l 1,15,-1
 1026 918 l 1,16,-1
 475 918 l 1,17,-1
 475 0 l 1,18,-1
 287 0 l 1,19,-1
 287 918 l 1,20,-1
 110 918 l 1,21,-1
 110 1060 l 1,22,-1
 287 1060 l 1,23,-1
 287 1221 l 2,24,25
 287 1368 287 1368 367.5 1436.5 c 128,-1,26
 448 1505 448 1505 613 1505 c 2,27,-1
 732 1505 l 1,28,-1
 744 1372 l 1,29,-1
 628 1372 l 2,30,31
 475 1372 475 1372 475 1239 c 2,32,-1
 475 1060 l 1,33,-1
 1026 1060 l 1,34,-1
 1026 1221 l 2,35,36
 1026 1368 1026 1368 1106.5 1436.5 c 128,-1,37
 1187 1505 1187 1505 1352 1505 c 2,38,-1
 1907 1505 l 1,39,-1
 1907 356 l 2,40,41
 1907 228 1907 228 1945 189 c 128,-1,42
 1983 150 1983 150 2102 150 c 2,43,-1
 2135 150 l 1,44,-1
 2113 -8 l 1,45,-1
 2059 -8 l 2,0,1
EndSplineSet
EndChar

StartChar: Tbar
Encoding: 358 358 427
Width: 1204
GlyphClass: 2
Flags: W
LayerCount: 2
Fore
SplineSet
232 688 m 1,0,-1
 232 817 l 1,1,-1
 501 817 l 1,2,-1
 501 1281 l 1,3,-1
 84 1281 l 1,4,-1
 84 1446 l 1,5,-1
 1120 1446 l 1,6,-1
 1120 1281 l 1,7,-1
 702 1281 l 1,8,-1
 702 817 l 1,9,-1
 948 817 l 1,10,-1
 948 688 l 1,11,-1
 702 688 l 1,12,-1
 702 0 l 1,13,-1
 501 0 l 1,14,-1
 501 688 l 1,15,-1
 232 688 l 1,0,-1
EndSplineSet
EndChar

StartChar: tbar
Encoding: 359 359 428
Width: 840
GlyphClass: 2
Flags: W
LayerCount: 2
Fore
SplineSet
676 -8 m 2,0,1
 454 -8 454 -8 355.5 62 c 128,-1,2
 257 132 257 132 257 303 c 2,3,-1
 257 560 l 1,4,-1
 58 560 l 1,5,-1
 58 689 l 1,6,-1
 257 689 l 1,7,-1
 257 918 l 1,8,-1
 80 918 l 1,9,-1
 80 1060 l 1,10,-1
 264 1060 l 1,11,-1
 287 1388 l 1,12,-1
 445 1388 l 1,13,-1
 445 1060 l 1,14,-1
 711 1060 l 1,15,-1
 711 918 l 1,16,-1
 445 918 l 1,17,-1
 445 689 l 1,18,-1
 774 689 l 1,19,-1
 774 560 l 1,20,-1
 445 560 l 1,21,-1
 445 315 l 2,22,23
 445 215 445 215 502.5 182.5 c 128,-1,24
 560 150 560 150 703 150 c 2,25,-1
 724 150 l 1,26,-1
 704 -8 l 1,27,-1
 676 -8 l 2,0,1
EndSplineSet
EndChar

StartChar: eng
Encoding: 331 331 430
Width: 1226
GlyphClass: 2
Flags: W
LayerCount: 2
Fore
SplineSet
862 781 m 2,0,1
 862 936 862 936 625 936 c 0,2,3
 508 936 508 936 441 886 c 128,-1,4
 374 836 374 836 374 755 c 2,5,-1
 374 0 l 1,6,-1
 186 0 l 1,7,-1
 186 1060 l 1,8,-1
 374 1060 l 1,9,-1
 374 957 l 1,10,11
 480 1080 480 1080 688 1080 c 0,12,13
 958 1080 958 1080 1030 890 c 0,14,15
 1050 836 1050 836 1050 770 c 2,16,-1
 1050 219 l 2,17,18
 1050 20 1050 20 1027 -66 c 128,-1,19
 1004 -152 1004 -152 975 -192 c 128,-1,20
 946 -232 946 -232 900 -262 c 0,21,22
 816 -316 816 -316 641 -316 c 1,23,-1
 613 -175 l 1,24,25
 752 -176 752 -176 788 -144 c 0,26,27
 806 -128 806 -128 819 -117.5 c 128,-1,28
 832 -107 832 -107 844 -61 c 0,29,30
 862 5 862 5 862 212 c 2,31,-1
 862 781 l 2,0,1
EndSplineSet
EndChar

StartChar: Eng
Encoding: 330 330 431
Width: 1582
GlyphClass: 2
Flags: W
LayerCount: 2
Fore
SplineSet
821 -373 m 1,0,-1
 793 -232 l 1,1,2
 1000 -214 1000 -214 1050 -184 c 0,3,4
 1130 -138 1130 -138 1149 -86 c 0,5,6
 1182 2 1182 2 1182 115 c 2,7,-1
 1182 190 l 1,8,-1
 389 1104 l 1,9,-1
 389 0 l 1,10,-1
 212 0 l 1,11,-1
 212 1446 l 1,12,-1
 365 1446 l 1,13,-1
 1193 470 l 1,14,-1
 1193 1446 l 1,15,-1
 1370 1446 l 1,16,-1
 1370 122 l 2,17,18
 1370 -294 1370 -294 1006 -358 c 0,19,20
 924 -372 924 -372 821 -373 c 1,0,-1
EndSplineSet
EndChar

StartChar: Dcroat
Encoding: 272 272 432
Width: 1215
GlyphClass: 2
Flags: W
LayerCount: 2
Fore
SplineSet
420 150 m 1,0,-1
 774 150 l 2,1,2
 992 150 992 150 1065 231 c 0,3,4
 1139 312 1139 312 1139 462 c 2,5,-1
 1139 971 l 2,6,7
 1139 1192 1139 1192 991 1258 c 0,8,9
 907 1296 907 1296 774 1295 c 2,10,-1
 420 1295 l 1,11,-1
 420 849 l 1,12,-1
 778 849 l 1,13,-1
 778 698 l 1,14,-1
 420 698 l 1,15,-1
 420 150 l 1,0,-1
76 698 m 1,16,-1
 76 849 l 1,17,-1
 218 849 l 1,18,-1
 218 1446 l 1,19,-1
 792 1446 l 2,20,21
 1207 1446 1207 1446 1310 1152 c 0,22,23
 1340 1066 1340 1066 1340 959 c 2,24,-1
 1340 482 l 2,25,26
 1340 245 1340 245 1203.5 122.5 c 128,-1,27
 1067 0 1067 0 794 0 c 2,28,-1
 218 0 l 1,29,-1
 218 698 l 1,30,-1
 76 698 l 1,16,-1
EndSplineSet
EndChar

StartChar: uni02C9
Encoding: 713 713 435
Width: 513
GlyphClass: 2
Flags: W
LayerCount: 2
Fore
SplineSet
56 1354 m 1,0,-1
 56 1506 l 1,1,-1
 457 1506 l 1,2,-1
 457 1354 l 1,3,-1
 56 1354 l 1,0,-1
EndSplineSet
EndChar

StartChar: uni2219
Encoding: 8729 8729 436
Width: 412
GlyphClass: 2
Flags: W
LayerCount: 2
Fore
SplineSet
108 1277 m 1,0,-1
 108 1483 l 1,1,-1
 313 1483 l 1,2,-1
 313 1277 l 1,3,-1
 108 1277 l 1,0,-1
EndSplineSet
EndChar

StartChar: glyph437
Encoding: 65539 -1 437
Width: 1215
GlyphClass: 2
Flags: W
LayerCount: 2
Fore
SplineSet
420 150 m 1,0,-1
 774 150 l 2,1,2
 992 150 992 150 1065 231 c 0,3,4
 1139 312 1139 312 1139 462 c 2,5,-1
 1139 971 l 2,6,7
 1139 1192 1139 1192 991 1258 c 0,8,9
 907 1296 907 1296 774 1295 c 2,10,-1
 420 1295 l 1,11,-1
 420 849 l 1,12,-1
 778 849 l 1,13,-1
 778 698 l 1,14,-1
 420 698 l 1,15,-1
 420 150 l 1,0,-1
76 698 m 1,16,-1
 76 849 l 1,17,-1
 218 849 l 1,18,-1
 218 1446 l 1,19,-1
 792 1446 l 2,20,21
 1207 1446 1207 1446 1310 1152 c 0,22,23
 1340 1066 1340 1066 1340 959 c 2,24,-1
 1340 482 l 2,25,26
 1340 245 1340 245 1203.5 122.5 c 128,-1,27
 1067 0 1067 0 794 0 c 2,28,-1
 218 0 l 1,29,-1
 218 698 l 1,30,-1
 76 698 l 1,16,-1
EndSplineSet
EndChar
